<?xml version="1.0" encoding="UTF-8"?>
<svg width="419.98" height="419.98" version="1.1" viewBox="0 0 111.12 111.12" xmlns="http://www.w3.org/2000/svg" xmlns:cc="http://creativecommons.org/ns#" xmlns:dc="http://purl.org/dc/elements/1.1/" xmlns:rdf="http://www.w3.org/1999/02/22-rdf-syntax-ns#">
 <metadata>
  <rdf:RDF>
   <cc:Work rdf:about="">
    <dc:format>image/svg+xml</dc:format>
    <dc:type rdf:resource="http://purl.org/dc/dcmitype/StillImage"/>
    <dc:title/>
   </cc:Work>
  </rdf:RDF>
 </metadata>
 <g transform="translate(2.6458 2.6458)">
  <g transform="matrix(1.4565 0 0 1.4565 -15.697 -10.145)" opacity=".99523">
   <path transform="scale(.26458)" d="m178.04 26.326a137.31 137.31 0 0 0-137.31 137.31 137.31 137.31 0 0 0 137.31 137.31 137.31 137.31 0 0 0 137.31-137.31 137.31 137.31 0 0 0-137.31-137.31zm-0.66992 11.281a126.03 126.03 0 0 1 0.66992 0 126.03 126.03 0 0 1 126.03 126.03 126.03 126.03 0 0 1-126.03 126.03 126.03 126.03 0 0 1-126.03-126.03 126.03 126.03 0 0 1 125.36-126.03z"/>
   <path d="m47.108 12.396a30.9 30.9 0 0 0-30.9 30.9 30.9 30.9 0 0 0 30.9 30.9 30.9 30.9 0 0 0 30.9-30.9 30.9 30.9 0 0 0-30.9-30.9zm-0.6935 6.0074a20.405 20.405 0 0 0-15.841 19.888 20.405 20.405 0 0 0 20.405 20.404 20.405 20.405 0 0 0 20.404-20.404 20.405 20.405 0 0 0-0.0078-0.56534 24.897 24.897 0 0 1 0.62994 5.5656 24.897 24.897 0 0 1-24.897 24.897 24.897 24.897 0 0 1-24.898-24.897 24.897 24.897 0 0 1 24.204-24.888z"/>
   <path d="m46.414 18.403a24.897 24.897 0 0 0-24.204 24.888 24.897 24.897 0 0 0 24.898 24.897 24.897 24.897 0 0 0 24.897-24.897 24.897 24.897 0 0 0-0.62994-5.5656 20.405 20.405 0 0 1 0.0078 0.56534 20.405 20.405 0 0 1-20.404 20.404 20.405 20.405 0 0 1-20.405-20.404 20.405 20.405 0 0 1 15.841-19.888z" fill="#fff"/>
   <g transform="translate(.014502 .089426)">
    <g transform="matrix(.0022195 0 0 .0022195 33.36 20.282)" fill="#8dc351" stroke-width="0">
     <path d="m7525 15989c-349-23-745-74-1074-139-1411-279-2741-944-3806-1903-103-94-479-466-575-572-245-266-540-648-754-974-84-128-216-339-216-346 0-2-17-32-38-66-48-80-130-233-220-414-483-964-760-2009-832-3130-13-205-13-695 0-900 103-1610 645-3087 1600-4360 239-319 428-535 744-850 286-286 436-420 706-632 1606-1261 3672-1865 5705-1668 1734 169 3354 891 4645 2071 632 577 1156 1241 1589 2014 64 113 231 450 301 605 345 767 574 1625 659 2470 32 311 41 496 41 810 0 808-118 1588-356 2359-526 1697-1613 3186-3064 4197-1216 848-2616 1332-4135 1429-181 11-740 11-920-1z" fill="#8dc351" stroke-width="0"/>
    </g>
    <path d="m51.05 48.152c-0.01235-0.03498-0.12756-0.45673-0.26128-0.93814-0.40118-1.4669-0.53902-1.9565-0.54725-1.9668-0.0062-0.0041-0.81882 0.2119-1.8084 0.48141-0.98958 0.26951-1.8002 0.48964-1.8043 0.48759-0.0062-0.0062-0.23042-2.1417-0.23042-2.2034 0-0.03498 0.01646-0.04732 0.06789-0.05761 0.1543-0.0288 1.148-0.30243 1.2899-0.35386 0.20779-0.07818 0.37238-0.23248 0.4197-0.39707 0.05761-0.19544 0.0432-0.31889-0.08846-0.80236-0.06789-0.24482-0.28597-1.0369-0.48553-1.7611-0.19956-0.72418-0.4917-1.7837-0.64806-2.3556s-0.39706-1.4463-0.53491-1.9442c-0.13784-0.49787-0.29214-1.0575-0.34152-1.2447-0.05143-0.18722-0.11727-0.38061-0.14813-0.43204-0.09052-0.15841-0.22631-0.28391-0.39089-0.36415-0.13784-0.06995-0.17282-0.07818-0.3518-0.08435-0.27568-0.01234-0.47936 0.03292-1.5101 0.33329-0.16664 0.04732-0.24688 0.06172-0.25099 0.04526-0.0144-0.04115-0.50816-1.8537-0.51228-1.8722 0-0.0082 0.17899-0.06789 0.39912-0.12756 0.22013-0.06172 1.0266-0.28391 1.7899-0.49582 0.76327-0.20985 1.3949-0.38884 1.4031-0.39501 0.0082-0.0062-0.16664-0.66452-0.38678-1.4628-0.22013-0.79824-0.39501-1.4607-0.39089-1.471 0.0041-0.01234 0.0576-0.03497 0.11727-0.04938 0.06172-0.01646 0.45673-0.1255 0.88054-0.24071 0.42381-0.11727 0.77356-0.2119 0.77561-0.20779 0.0021 0.0021 0.18105 0.64806 0.39707 1.434 0.21808 0.7859 0.39912 1.4319 0.40324 1.436 0.0041 0.0041 0.28186-0.07201 0.62131-0.17076 0.3374-0.09875 0.65423-0.18927 0.70567-0.20573 0.07201-0.02057 0.09052-0.03497 0.08641-0.06378-0.0041-0.02263-0.17899-0.65835-0.38678-1.4175-0.20779-0.7571-0.37855-1.3866-0.37855-1.399 0-0.01852 1.7652-0.51433 1.7796-0.49993 0.0041 0.0041 0.18722 0.66246 0.40735 1.4628 0.22013 0.8003 0.40324 1.4607 0.40941 1.4648 0.0041 0.0062 0.08641-0.0041 0.1831-0.02057 0.85585-0.15224 1.8495-0.19339 2.4359-0.10492 1.3825 0.21396 2.2178 0.90523 2.6396 2.1828 0.40324 1.2179 0.19956 2.2322-0.62131 3.0839l-0.15019 0.15636h0.24276c1.7035 0 2.7651 0.80853 3.2177 2.4482 0.26745 0.96695 0.27774 1.8722 0.03086 2.619-0.08435 0.25922-0.28186 0.64394-0.4485 0.87848-0.29831 0.42175-0.86202 0.91346-1.4381 1.2591-0.56988 0.34152-1.5512 0.77767-2.2281 0.99369-0.06172 0.02057-0.11932 0.04115-0.12755 0.04938-0.0082 0.0062 0.14607 0.59663 0.34152 1.3085 0.19751 0.71389 0.38061 1.3805 0.40735 1.4833l0.05143 0.18722-0.87642 0.24071c-0.48142 0.13167-0.88671 0.23865-0.897 0.23865-0.01234 0-0.20162-0.65423-0.41969-1.4545-0.22014-0.80236-0.40118-1.4586-0.40324-1.4607-0.0021-0.0041-0.2942 0.07201-0.65012 0.16664-0.35592 0.09464-0.67686 0.17899-0.71184 0.18722-0.03703 0.0062-0.06789 0.02469-0.06789 0.03703 0 0.02263 0.03292 0.1399 0.53285 1.9586 0.14607 0.53285 0.26334 0.969 0.25922 0.97312-0.0021 0.0021-0.40324 0.11521-0.89083 0.24894l-0.88671 0.24276zm0.90934-5.6823c1.9092-0.49993 2.9399-0.96695 3.5654-1.615 0.19133-0.20162 0.27157-0.31066 0.36826-0.51845 0.1111-0.23248 0.14401-0.38266 0.14196-0.65217 0-0.4341-0.16253-0.86202-0.44027-1.1583-0.65218-0.69744-1.8166-0.79002-3.7526-0.2942-0.46496 0.11932-1.4319 0.40529-1.4319 0.42587 0 0.0082 0.24071 0.89082 0.53491 1.9606 0.2942 1.0698 0.53491 1.9503 0.53491 1.9565 0 0.02057 0.04526 0.01029 0.47936-0.10492zm-1.65-5.7379c1.3517-0.35386 2.0882-0.6604 2.6642-1.111 0.19956-0.15636 0.33123-0.29831 0.4629-0.49993 0.12344-0.18722 0.17899-0.33123 0.22013-0.56988 0.03909-0.23248 0.0144-0.48142-0.08024-0.75916-0.20985-0.62749-0.63777-0.97312-1.3578-1.0945-0.1687-0.02674-0.28803-0.03292-0.61308-0.02263-0.46701 0.01234-0.82293 0.06583-1.401 0.2119-0.3518 0.08641-1.2529 0.34975-1.2714 0.36826-0.0082 0.0082 0.25922 0.99575 0.88671 3.267 0.04938 0.17899 0.09464 0.30243 0.10904 0.30243 0.01234 0 0.18516-0.04115 0.38061-0.09258z" fill="#fff"/>
   </g>
   <path transform="scale(.26458)" d="m178.04 37.613a126.03 126.03 0 0 0-126.03 126.03 126.03 126.03 0 0 0 126.03 126.03 126.03 126.03 0 0 0 126.03-126.03 126.03 126.03 0 0 0-126.03-126.03zm0 9.2383a116.79 116.79 0 0 1 116.79 116.79 116.79 116.79 0 0 1-116.79 116.79 116.79 116.79 0 0 1-116.79-116.79 116.79 116.79 0 0 1 116.79-116.79z" fill="#fff"/>
  </g>
 </g>
</svg>
