<?xml version="1.0" encoding="UTF-8"?>
<svg xmlns="http://www.w3.org/2000/svg" version="1.1" viewBox="0 0 788 788">
  <defs>
    <style>
      .cls-1 {
        fill: #fff;
      }

      .cls-2 {
        fill: #98c161;
      }
    </style>
  </defs>
  <!-- Generator: Adobe Illustrator 28.6.0, SVG Export Plug-In . SVG Version: 1.2.0 Build 709)  -->
  <g>
    <g id="Layer_1">
      <circle class="cls-2" cx="394" cy="394" r="394"/>
      <path id="symbol" class="cls-1" d="M516.9,261.7c-19.8-44.9-65.3-54.5-121-45.2l-17.9-69.4-42.2,10.9,17.6,69.2c-11.1,2.8-22.5,5.2-33.8,8.4l-17.6-68.8-42.2,10.9,17.9,69.4c-9.1,2.6-85.2,22.1-85.2,22.1l11.6,45.2s31-8.7,30.7-8c17.2-4.5,25.3,4.1,29.1,12.2l49.2,190.2c.6,5.5-.4,14.9-12.2,18.1.7.4-30.7,7.9-30.7,7.9l4.6,52.7s75.4-19.3,85.3-21.8l18.1,70.2,42.2-10.9-18.1-70.7c11.6-2.7,22.9-5.5,33.9-8.4l18,70.3,42.2-10.9-18.1-70.1c65-15.8,110.9-56.8,101.5-119.5-6-37.8-47.3-68.8-81.6-72.3,21.1-18.7,31.8-46,18.7-81.7h0ZM496.6,427.2c8.4,62.1-77.9,69.7-106.4,77.2l-24.8-92.9c28.6-7.5,117-39,131.2,15.7ZM444.6,300.7c8.9,55.2-64.9,61.6-88.7,67.7l-22.6-84.3c23.9-5.9,93.2-34.5,111.3,16.6Z"/>
    </g>
  </g>
</svg>