<?xml version="1.0" encoding="UTF-8"?><svg id="Selene_Logo" xmlns="http://www.w3.org/2000/svg" viewBox="0 0 154.44 154.44"><defs><style>.cls-1{fill:#98c162;}.cls-2{fill:#fff;}.cls-3{stroke-width:11px;}.cls-3,.cls-4,.cls-5{fill:none;stroke:#000;stroke-miterlimit:10;}.cls-4{stroke-width:7px;}.cls-5{stroke-width:6px;}</style></defs><circle class="cls-1" cx="87.35" cy="63.83" r="38.49"/><path id="symbol" class="cls-2" d="M99.36,50.9c-1.93-4.39-6.38-5.32-11.82-4.42l-1.75-6.78-4.12,1.06,1.72,6.76c-1.08.27-2.2.51-3.3.82l-1.72-6.72-4.12,1.06,1.75,6.78c-.89.25-8.32,2.16-8.32,2.16l1.13,4.42s3.03-.85,3-.78c1.68-.44,2.47.4,2.84,1.19l4.81,18.58c.06.54-.04,1.46-1.19,1.77.07.04-3,.77-3,.77l.45,5.15s7.37-1.89,8.33-2.13l1.77,6.86,4.12-1.06-1.77-6.91c1.13-.26,2.24-.54,3.31-.82l1.76,6.87,4.12-1.06-1.77-6.85c6.35-1.54,10.83-5.55,9.91-11.67-.59-3.69-4.62-6.72-7.97-7.06,2.06-1.83,3.11-4.49,1.83-7.98h0ZM97.38,67.07c.82,6.07-7.61,6.81-10.39,7.54l-2.42-9.07c2.79-.73,11.43-3.81,12.82,1.53ZM92.3,54.71c.87,5.39-6.34,6.02-8.66,6.61l-2.21-8.23c2.33-.58,9.1-3.37,10.87,1.62Z"/><circle id="Outside_ring" class="cls-4" cx="77.22" cy="77.22" r="73.72"/><circle id="Middle_ring" class="cls-3" cx="77.22" cy="77.22" r="60.02"/><circle id="Inner_Ring" class="cls-5" cx="87.35" cy="63.83" r="39.39"/></svg>