<?xml version="1.0" encoding="UTF-8"?>
<svg version="1.1" xmlns="http://www.w3.org/2000/svg" width="629" height="629">
<path d="M0 0 C207.57 0 415.14 0 629 0 C629 207.57 629 415.14 629 629 C421.43 629 213.86 629 0 629 C0 421.43 0 213.86 0 0 Z " fill="#FCFCFC" transform="translate(0,0)"/>
<path d="M0 0 C2.47863975 0.86940699 4.99132239 1.58498452 7.52099609 2.29003906 C14.11150019 4.24533696 20.0292032 7.11408547 25.89599609 10.66503906 C26.96333984 11.10589844 28.03068359 11.54675781 29.13037109 12.00097656 C45.69277754 19.01708561 60.04982259 32.39799633 72.89599609 44.66503906 C73.55083984 45.26703125 74.20568359 45.86902344 74.88037109 46.48925781 C89.12199401 59.95098233 102.84920448 80.02342108 109.16162109 98.61425781 C110.0700748 101.15116312 111.17910455 103.57654301 112.27099609 106.04003906 C117.5507229 118.73690472 120.36813942 131.49827985 121.53662109 145.16503906 C121.67181582 148.51127555 121.67181582 148.51127555 122.89599609 150.66503906 C123.14796973 155.47201854 123.08972826 160.28957792 123.08349609 165.10253906 C123.08355652 165.80355743 123.08361694 166.50457581 123.0836792 167.22683716 C123.06635573 181.28523915 122.52449296 195.02006135 118.89599609 208.66503906 C118.23599609 208.66503906 117.57599609 208.66503906 116.89599609 208.66503906 C116.98880859 210.39753906 116.98880859 210.39753906 117.08349609 212.16503906 C117.10873965 216.87717027 115.74074121 220.36063379 113.89599609 224.66503906 C115.78318359 225.22191406 115.78318359 225.22191406 117.70849609 225.79003906 C132.53728789 230.83368768 142.26368597 239.53990867 149.52099609 253.39160156 C152.15430978 259.66068358 153.14560536 265.3476547 153.1566925 272.12080383 C153.16051805 272.82633257 153.1643436 273.5318613 153.16828507 274.25876969 C153.17852065 276.59910483 153.17464109 278.93919027 153.1706543 281.27954102 C153.17500606 282.96728744 153.18019075 284.65503189 153.18614197 286.34277344 C153.19949452 290.91109681 153.20011472 295.47933725 153.19757867 300.04767632 C153.19650623 303.86948246 153.2013994 307.69127201 153.20618409 311.51307458 C153.21726673 320.53468938 153.21772394 329.55626255 153.21166992 338.57788086 C153.20563305 347.86529681 153.21793672 357.15256115 153.23923999 366.43995124 C153.25689126 374.43088629 153.26285172 382.42177324 153.25960225 390.41272706 C153.25779457 395.17773862 153.26037374 399.94264208 153.27431679 404.70763588 C153.28694768 409.19175406 153.28490155 413.67563707 153.2719059 418.15975189 C153.26955184 419.79833495 153.27223248 421.43693483 153.28052902 423.07549858 C153.33574435 434.83550726 151.9122698 444.91588113 146.89599609 455.66503906 C146.23599609 455.66503906 145.57599609 455.66503906 144.89599609 455.66503906 C144.58662109 456.68597656 144.58662109 456.68597656 144.27099609 457.72753906 C138.91968029 469.15989556 127.54830254 474.11042163 116.51708984 478.76269531 C115.60619598 479.14961044 114.69530212 479.53652557 113.75680542 479.93516541 C103.73773246 484.17815106 93.69059651 488.35302545 83.61572266 492.46166992 C81.52544685 493.31667782 79.43727189 494.17683723 77.35107422 495.04174805 C74.279577 496.31465286 71.20197111 497.57158158 68.12255859 498.82519531 C67.19649811 499.21256363 66.27043762 499.59993195 65.3163147 499.9990387 C60.35475628 501.9966195 56.34234284 503.3171525 50.89599609 502.66503906 C49.90599609 502.00503906 48.91599609 501.34503906 47.89599609 500.66503906 C43.48024812 501.02114777 39.22441066 501.71819838 34.89599609 502.66503906 C34.97849609 503.73753906 35.06099609 504.81003906 35.14599609 505.91503906 C34.89599609 509.66503906 34.89599609 509.66503906 33.18725586 511.75848389 C30.82122536 513.72725572 28.836453 514.78560251 25.98583984 515.91992188 C25.0096167 516.31423401 24.03339355 516.70854614 23.02758789 517.11480713 C21.9735376 517.52841492 20.9194873 517.94202271 19.83349609 518.36816406 C18.73239502 518.80964783 17.63129395 519.25113159 16.49682617 519.70599365 C12.96699089 521.11868738 9.43168281 522.51706364 5.89599609 523.91503906 C3.57791081 524.83987605 1.26019838 525.76564817 -1.05712891 526.69238281 C-5.58952809 528.50344609 -10.12481741 530.30695658 -14.66259766 532.10449219 C-18.80757277 533.74793303 -22.94562518 535.40679271 -27.07666016 537.08496094 C-28.45277466 537.64228912 -28.45277466 537.64228912 -29.85668945 538.21087646 C-31.54839902 538.89698668 -33.23877385 539.58640156 -34.92749023 540.27984619 C-48.00243922 545.57042458 -61.26271183 545.5055948 -74.22900391 540.04003906 C-76.73734798 538.95035851 -79.23469171 537.84030475 -81.72607422 536.71240234 C-85.29481682 535.14054343 -88.93976612 533.80737068 -92.60400391 532.47753906 C-100.87309723 529.41638924 -109.01434529 526.13922303 -116.97900391 522.35253906 C-123.52597502 519.32348654 -130.33333038 516.98725448 -137.13671875 514.60717773 C-142.04583844 512.86905584 -146.67807484 510.96502208 -151.29614258 508.56030273 C-153.99937217 507.22164738 -156.80600322 506.29915481 -159.66650391 505.35253906 C-166.2375365 503.07740735 -172.39194471 500.2778124 -178.63134766 497.21582031 C-182.0850257 495.67351415 -185.46866375 494.68708898 -189.10400391 493.66503906 C-191.03962551 492.81093281 -192.95657617 491.91343247 -194.85400391 490.97753906 C-200.28129393 488.40409385 -205.75712891 486.29466184 -211.41650391 484.29003906 C-230.0948578 477.581879 -245.00266632 470.03837994 -255.04150391 452.22753906 C-256.10400391 449.66503906 -256.10400391 449.66503906 -256.10400391 446.66503906 C-256.76400391 446.66503906 -257.42400391 446.66503906 -258.10400391 446.66503906 C-260.4769959 437.78689981 -260.40777288 428.96375307 -260.41040039 419.85522461 C-260.41803389 418.17042682 -260.4264634 416.48563247 -260.43562317 414.80084229 C-260.45745462 410.24904698 -260.46635142 405.69731879 -260.47144961 401.14547706 C-260.47510594 398.29530349 -260.48135247 395.44514718 -260.488451 392.59498024 C-260.5129037 382.63370627 -260.52598884 372.67248408 -260.52954102 362.71118164 C-260.53317552 353.45435258 -260.56307563 344.19785521 -260.6049456 334.94112748 C-260.63973031 326.9688027 -260.65509085 318.99658747 -260.65578705 311.02418739 C-260.65657691 306.2735763 -260.66518169 301.52330387 -260.69378471 296.77277184 C-260.72010701 292.30164167 -260.72209234 287.83112763 -260.70612907 283.35995483 C-260.70432593 281.72864746 -260.71090157 280.09730344 -260.72694778 278.46607399 C-260.87959654 261.92654138 -256.13975319 249.14444653 -244.79150391 236.91503906 C-238.31208974 230.76901757 -230.65147383 227.0186902 -222.10400391 224.66503906 C-222.24495455 223.03960826 -222.39192478 221.41469855 -222.54150391 219.79003906 C-222.62271484 218.88511719 -222.70392578 217.98019531 -222.78759766 217.04785156 C-222.97389675 214.65393046 -222.97389675 214.65393046 -224.10400391 212.66503906 C-224.60096009 209.4257883 -225.00085356 206.17833774 -225.40869141 202.92675781 C-225.74521776 200.53030014 -226.20810242 198.27150104 -226.82788086 195.9284668 C-229.15849564 187.10964278 -229.5989699 178.81475641 -229.55004883 169.75512695 C-229.54154997 167.365492 -229.57039497 164.97826737 -229.60205078 162.58886719 C-229.64308944 153.32558351 -228.63149162 145.09668521 -226.09790039 136.17944336 C-225.12339124 132.7335924 -224.39314942 129.30735158 -223.72900391 125.79003906 C-214.77490077 83.16072195 -187.34150215 44.63281221 -151.10400391 20.66503906 C-145.55130698 17.12588963 -139.86385872 13.85260753 -134.10400391 10.66503906 C-133.24935547 10.17519531 -132.39470703 9.68535156 -131.51416016 9.18066406 C-92.80033659 -11.77514905 -41.05026315 -14.75078559 0 0 Z " fill="#9BC4F9" transform="translate(365.10400390625,55.3349609375)"/>
<path d="M0 0 C2.47863975 0.86940699 4.99132239 1.58498452 7.52099609 2.29003906 C14.11150019 4.24533696 20.0292032 7.11408547 25.89599609 10.66503906 C26.96333984 11.10589844 28.03068359 11.54675781 29.13037109 12.00097656 C45.69277754 19.01708561 60.04982259 32.39799633 72.89599609 44.66503906 C73.55083984 45.26703125 74.20568359 45.86902344 74.88037109 46.48925781 C89.12199401 59.95098233 102.84920448 80.02342108 109.16162109 98.61425781 C110.0700748 101.15116312 111.17910455 103.57654301 112.27099609 106.04003906 C117.5507229 118.73690472 120.36813942 131.49827985 121.53662109 145.16503906 C121.67181582 148.51127555 121.67181582 148.51127555 122.89599609 150.66503906 C123.14796973 155.47201854 123.08972826 160.28957792 123.08349609 165.10253906 C123.08355652 165.80355743 123.08361694 166.50457581 123.0836792 167.22683716 C123.06635573 181.28523915 122.52449296 195.02006135 118.89599609 208.66503906 C118.23599609 208.66503906 117.57599609 208.66503906 116.89599609 208.66503906 C116.98880859 210.39753906 116.98880859 210.39753906 117.08349609 212.16503906 C117.10873965 216.87717027 115.74074121 220.36063379 113.89599609 224.66503906 C115.78318359 225.22191406 115.78318359 225.22191406 117.70849609 225.79003906 C132.53728789 230.83368768 142.26368597 239.53990867 149.52099609 253.39160156 C152.15430978 259.66068358 153.14560536 265.3476547 153.1566925 272.12080383 C153.16051805 272.82633257 153.1643436 273.5318613 153.16828507 274.25876969 C153.17852065 276.59910483 153.17464109 278.93919027 153.1706543 281.27954102 C153.17500606 282.96728744 153.18019075 284.65503189 153.18614197 286.34277344 C153.19949452 290.91109681 153.20011472 295.47933725 153.19757867 300.04767632 C153.19650623 303.86948246 153.2013994 307.69127201 153.20618409 311.51307458 C153.21726673 320.53468938 153.21772394 329.55626255 153.21166992 338.57788086 C153.20563305 347.86529681 153.21793672 357.15256115 153.23923999 366.43995124 C153.25689126 374.43088629 153.26285172 382.42177324 153.25960225 390.41272706 C153.25779457 395.17773862 153.26037374 399.94264208 153.27431679 404.70763588 C153.28694768 409.19175406 153.28490155 413.67563707 153.2719059 418.15975189 C153.26955184 419.79833495 153.27223248 421.43693483 153.28052902 423.07549858 C153.33574435 434.83550726 151.9122698 444.91588113 146.89599609 455.66503906 C146.23599609 455.66503906 145.57599609 455.66503906 144.89599609 455.66503906 C144.58662109 456.68597656 144.58662109 456.68597656 144.27099609 457.72753906 C138.91968029 469.15989556 127.54830254 474.11042163 116.51708984 478.76269531 C115.60619598 479.14961044 114.69530212 479.53652557 113.75680542 479.93516541 C103.73773246 484.17815106 93.69059651 488.35302545 83.61572266 492.46166992 C81.52544685 493.31667782 79.43727189 494.17683723 77.35107422 495.04174805 C74.279577 496.31465286 71.20197111 497.57158158 68.12255859 498.82519531 C67.19649811 499.21256363 66.27043762 499.59993195 65.3163147 499.9990387 C60.24893133 502.03922585 56.3639201 503.12373247 50.89599609 502.66503906 C50.23599609 501.34503906 49.57599609 500.02503906 48.89599609 498.66503906 C48.23599609 498.66503906 47.57599609 498.66503906 46.89599609 498.66503906 C46.52099609 495.97753906 46.52099609 495.97753906 46.89599609 492.66503906 C50.86204378 488.82241764 54.56190211 486.67394866 59.72412109 484.60644531 C60.37846634 484.34078262 61.03281158 484.07511993 61.70698547 483.80140686 C63.11587409 483.23096368 64.52677974 482.66548125 65.93948364 482.10455322 C68.18352119 481.2126241 70.42100754 480.30576108 72.6574707 479.39501953 C79.76847115 476.50483367 86.89702453 473.66040644 94.03842163 470.84623718 C97.11212206 469.63123602 100.18001701 468.40199006 103.24719238 467.17062378 C105.40562062 466.31109512 107.57169019 465.47340922 109.73876953 464.63598633 C119.97223012 460.58529385 129.7514899 454.89206945 134.89599609 444.66503906 C136.51434746 439.76022643 137.14958487 435.5167834 137.16342163 430.36076355 C137.1702183 429.30881907 137.1702183 429.30881907 137.17715228 428.23562318 C137.18973492 425.90367708 137.18817992 423.57196636 137.18652344 421.23999023 C137.19251253 419.56062014 137.19931895 417.8812528 137.20687866 416.20188904 C137.22450705 411.65217563 137.22923271 407.10253752 137.23051023 402.55279326 C137.23193417 399.70684707 137.23620837 396.86091987 137.24150467 394.01497841 C137.25999444 384.07662369 137.26817659 374.13832253 137.26660156 364.19995117 C137.26540043 354.9516924 137.28649999 345.70366711 137.31808889 336.4554674 C137.34428269 328.50193381 137.35496756 320.54847633 137.35369074 312.59489995 C137.35318203 307.85054356 137.35881518 303.10639476 137.38004684 298.36208153 C137.39948164 293.8976279 137.39951807 289.4335788 137.38501358 284.96911049 C137.38293087 283.33655325 137.38759412 281.70397034 137.3997345 280.07145691 C137.48555162 267.72586533 136.09485241 258.03020848 127.32177734 248.71191406 C120.9043812 243.29691313 112.84056434 239.54600808 104.42949486 239.53081799 C102.71502995 239.52413122 102.71502995 239.52413122 100.96592939 239.51730937 C99.07389923 239.51758591 99.07389923 239.51758591 97.14364624 239.51786804 C95.79453571 239.51456917 94.44542617 239.51084355 93.09631789 239.50672656 C89.38075375 239.49670097 85.66520577 239.49298887 81.94963002 239.49033725 C77.94537624 239.48643582 73.94113526 239.47685732 69.93688965 239.46812439 C60.26207922 239.4483547 50.58726773 239.43829281 40.91244215 239.4293966 C36.35699834 239.42501424 31.80155571 239.41964727 27.24611282 239.41440773 C12.10349201 239.39739441 -3.03912807 239.38290033 -18.18175697 239.37565899 C-22.11205674 239.37374907 -26.0423565 239.37182875 -29.97265625 239.36987305 C-30.9495206 239.36938931 -31.92638494 239.36890557 -32.93285124 239.36840717 C-48.7566734 239.36010725 -64.58041995 239.33477145 -80.40420909 239.30229237 C-96.64827731 239.26922237 -112.8923071 239.25121025 -129.13640916 239.24801475 C-138.25760928 239.24584952 -147.37869917 239.23709908 -156.49986649 239.21155357 C-164.26818857 239.18984734 -172.03637365 239.18179574 -179.80472262 239.19152036 C-183.76738698 239.19606539 -187.72976866 239.19416725 -191.69239426 239.17475891 C-195.3234365 239.15712847 -198.95398985 239.15812357 -202.58503728 239.1736562 C-204.51387251 239.17715426 -206.44271287 239.16100494 -208.37147677 239.14405173 C-220.76193235 239.23581684 -229.18600189 243.74703704 -237.85400391 252.41503906 C-244.48214389 261.98901905 -244.68836963 271.35496381 -244.64990234 282.58935547 C-244.65864949 284.28539981 -244.66913924 285.98143591 -244.68122864 287.67745972 C-244.70896953 292.25530027 -244.71249597 296.83286996 -244.71150875 301.41078234 C-244.71464813 306.20477318 -244.74028763 310.99864386 -244.76348877 315.79257202 C-244.80397394 324.85872507 -244.82437186 333.92480633 -244.83746266 342.99103582 C-244.8533581 353.31761674 -244.89178442 363.64407592 -244.93205595 373.97058606 C-245.01435245 395.20203019 -245.06850855 416.43346847 -245.10400391 437.66503906 C-244.44400391 437.66503906 -243.78400391 437.66503906 -243.10400391 437.66503906 C-242.88486328 438.29410156 -242.66572266 438.92316406 -242.43994141 439.57128906 C-238.52328688 450.14307202 -233.00659144 457.11737097 -223.10400391 462.66503906 C-220.75676655 463.61119062 -218.42211576 464.50157539 -216.04150391 465.35253906 C-203.48597468 469.95588874 -190.99922316 474.77265789 -178.88525391 480.44628906 C-174.60806924 482.32056099 -170.23262516 483.92135038 -165.84716797 485.52294922 C-160.26850269 487.56491426 -154.83491825 489.88766429 -149.41259766 492.31347656 C-141.72498509 495.75036123 -134.0378477 498.85197598 -126.08056641 501.61816406 C-121.85059497 503.10587055 -117.78980409 504.86943039 -113.73681641 506.78222656 C-107.43444695 509.72333231 -101.06912036 512.13271544 -94.50244141 514.41894531 C-90.5925815 515.85256061 -86.87734686 517.56264648 -83.11181641 519.33300781 C-69.56568673 525.47236763 -69.56568673 525.47236763 -55.16650391 527.97753906 C-53.60609375 528.03361328 -53.60609375 528.03361328 -52.01416016 528.09082031 C-42.50147399 527.05497337 -33.3521781 522.67058597 -24.56494141 519.04003906 C-23.51803131 518.61126465 -22.47112122 518.18249023 -21.39248657 517.74072266 C-18.08647436 516.3858264 -14.78268572 515.02560632 -11.47900391 513.66503906 C-8.16768459 512.30570623 -4.85591797 510.94746775 -1.5440979 509.58935547 C0.50433688 508.74885859 2.55239731 507.90744853 4.6000061 507.06494141 C6.46506211 506.29794059 8.33088681 505.53280556 10.1975708 504.76977539 C12.02865948 504.020127 13.8573306 503.26455142 15.68377686 502.50366211 C16.56640198 502.14054932 17.4490271 501.77743652 18.35839844 501.40332031 C19.13984222 501.07887939 19.92128601 500.75443848 20.72640991 500.42016602 C24.88857307 498.97152036 28.28593411 499.00450081 32.33349609 500.66503906 C34.44232071 503.36433457 34.33592906 505.38043155 34.32958984 508.72753906 C33.76436174 511.25324302 32.85821227 511.99056392 30.89599609 513.66503906 C28.69569397 514.76921082 28.69569397 514.76921082 26.09936523 515.80639648 C25.12306656 516.20078415 24.14676788 516.59517181 23.1408844 517.00151062 C22.08167282 517.42027969 21.02246124 517.83904877 19.93115234 518.27050781 C18.82863632 518.71340652 17.7261203 519.15630524 16.5901947 519.61262512 C13.0491428 521.03316493 9.50393462 522.44298815 5.95849609 523.85253906 C3.63594849 524.78217343 1.31367974 525.71250479 -1.00830078 526.64355469 C-5.55206969 528.4643026 -10.09826032 530.27879038 -14.64648438 532.08837891 C-18.79730755 533.74099499 -22.94218595 535.40702975 -27.08105469 537.08935547 C-27.99850967 537.46095291 -28.91596466 537.83255035 -29.86122131 538.21540833 C-31.55246141 538.90108824 -33.24237767 539.5900469 -34.9306488 540.28300476 C-48.00509163 545.57006953 -61.26440972 545.50487911 -74.22900391 540.04003906 C-76.73734798 538.95035851 -79.23469171 537.84030475 -81.72607422 536.71240234 C-85.29481682 535.14054343 -88.93976612 533.80737068 -92.60400391 532.47753906 C-100.87309723 529.41638924 -109.01434529 526.13922303 -116.97900391 522.35253906 C-123.52597502 519.32348654 -130.33333038 516.98725448 -137.13671875 514.60717773 C-142.04583844 512.86905584 -146.67807484 510.96502208 -151.29614258 508.56030273 C-153.99937217 507.22164738 -156.80600322 506.29915481 -159.66650391 505.35253906 C-166.2375365 503.07740735 -172.39194471 500.2778124 -178.63134766 497.21582031 C-182.0850257 495.67351415 -185.46866375 494.68708898 -189.10400391 493.66503906 C-191.03962551 492.81093281 -192.95657617 491.91343247 -194.85400391 490.97753906 C-200.28129393 488.40409385 -205.75712891 486.29466184 -211.41650391 484.29003906 C-230.0948578 477.581879 -245.00266632 470.03837994 -255.04150391 452.22753906 C-256.10400391 449.66503906 -256.10400391 449.66503906 -256.10400391 446.66503906 C-256.76400391 446.66503906 -257.42400391 446.66503906 -258.10400391 446.66503906 C-260.4769959 437.78689981 -260.40777288 428.96375307 -260.41040039 419.85522461 C-260.41803389 418.17042682 -260.4264634 416.48563247 -260.43562317 414.80084229 C-260.45745462 410.24904698 -260.46635142 405.69731879 -260.47144961 401.14547706 C-260.47510594 398.29530349 -260.48135247 395.44514718 -260.488451 392.59498024 C-260.5129037 382.63370627 -260.52598884 372.67248408 -260.52954102 362.71118164 C-260.53317552 353.45435258 -260.56307563 344.19785521 -260.6049456 334.94112748 C-260.63973031 326.9688027 -260.65509085 318.99658747 -260.65578705 311.02418739 C-260.65657691 306.2735763 -260.66518169 301.52330387 -260.69378471 296.77277184 C-260.72010701 292.30164167 -260.72209234 287.83112763 -260.70612907 283.35995483 C-260.70432593 281.72864746 -260.71090157 280.09730344 -260.72694778 278.46607399 C-260.87959654 261.92654138 -256.13975319 249.14444653 -244.79150391 236.91503906 C-238.31208974 230.76901757 -230.65147383 227.0186902 -222.10400391 224.66503906 C-222.24495455 223.03960826 -222.39192478 221.41469855 -222.54150391 219.79003906 C-222.62271484 218.88511719 -222.70392578 217.98019531 -222.78759766 217.04785156 C-222.97389675 214.65393046 -222.97389675 214.65393046 -224.10400391 212.66503906 C-224.60096009 209.4257883 -225.00085356 206.17833774 -225.40869141 202.92675781 C-225.74521776 200.53030014 -226.20810242 198.27150104 -226.82788086 195.9284668 C-229.15849564 187.10964278 -229.5989699 178.81475641 -229.55004883 169.75512695 C-229.54154997 167.365492 -229.57039497 164.97826737 -229.60205078 162.58886719 C-229.64308944 153.32558351 -228.63149162 145.09668521 -226.09790039 136.17944336 C-225.12339124 132.7335924 -224.39314942 129.30735158 -223.72900391 125.79003906 C-214.77490077 83.16072195 -187.34150215 44.63281221 -151.10400391 20.66503906 C-145.55130698 17.12588963 -139.86385872 13.85260753 -134.10400391 10.66503906 C-133.24935547 10.17519531 -132.39470703 9.68535156 -131.51416016 9.18066406 C-92.80033659 -11.77514905 -41.05026315 -14.75078559 0 0 Z " fill="#0BC18F" transform="translate(365.10400390625,55.3349609375)"/>
<path d="M0 0 C207.57 0 415.14 0 629 0 C629 207.57 629 415.14 629 629 C421.43 629 213.86 629 0 629 C0 421.43 0 213.86 0 0 Z M26.5625 38.81640625 C25.34961742 40.69858644 25.34961742 40.69858644 24 44 C23.66663269 44.66555918 23.33326539 45.33111836 22.98979604 46.016846 C18.73963806 55.65136546 19.45019042 65.6587317 19.50552368 75.97221375 C19.50234477 78.11678039 19.49741487 80.26134503 19.49089086 82.40590411 C19.47809179 88.28312137 19.4901783 94.16006211 19.50641942 100.03726113 C19.51959554 106.38152883 19.5096717 112.72576618 19.50265503 119.07003784 C19.49374138 130.05845592 19.49950821 141.04678421 19.51594925 152.03519249 C19.53319147 163.56167033 19.54298925 175.08811171 19.54261398 186.61460304 C19.54259869 187.33219989 19.5425834 188.04979673 19.54256765 188.78913894 C19.54248583 191.7021902 19.5423546 194.61524146 19.54215602 197.52829272 C19.5403448 224.84204805 19.56022003 252.15574786 19.59101535 279.46948393 C19.61827082 303.73300062 19.6307375 327.99647789 19.62939453 352.26000977 C19.62931371 353.8184315 19.62923299 355.37685324 19.62915237 356.93527498 C19.62911167 357.70573224 19.62907097 358.4761895 19.62902904 359.26999396 C19.62882744 363.14842649 19.62864628 367.02685902 19.62848854 370.90529156 C19.62845511 371.67045898 19.62842169 372.43562639 19.62838725 373.2239807 C19.62765688 393.50484416 19.63673435 413.78570267 19.64914167 434.066562 C19.64958221 434.78799352 19.65002276 435.50942504 19.65047665 436.25271812 C19.65225308 439.15369372 19.65402989 442.05466932 19.65585856 444.95564489 C19.66217631 455.04575455 19.6651968 465.13586031 19.66608154 475.22597181 C19.66727585 488.22691753 19.67549311 501.22782241 19.69494446 514.22875579 C19.70418332 520.49803417 19.71027034 526.76727251 19.70775604 533.03655815 C19.70556677 538.77350134 19.71259783 544.51035597 19.72705309 550.24728069 C19.73068082 552.3244663 19.73093929 554.40166104 19.72751851 556.47884699 C19.72338693 559.2996459 19.73152068 562.12015478 19.74273109 564.94092846 C19.73862046 565.74942331 19.73450982 566.55791816 19.73027462 567.39091286 C19.80479888 577.64034692 22.82640172 588.81120214 29.3125 596.875 C30.199375 597.57625 31.08625 598.2775 32 599 C32.55171875 599.47695313 33.1034375 599.95390625 33.671875 600.4453125 C45.89561927 610.49706915 58.28935654 610.72037906 73.37167358 610.62818909 C75.54740503 610.63323851 77.7231323 610.64047038 79.89885008 610.64968723 C85.85752269 610.6685789 91.81578369 610.65639289 97.77444577 610.6389643 C104.2079694 610.62557753 110.64143332 610.64103189 117.07495117 610.65278625 C128.94131739 610.67105361 140.80755055 610.66477321 152.67391375 610.6477995 C163.63349856 610.63222016 174.59303601 610.62638237 185.55263138 610.6301403 C186.28015416 610.63037711 187.00767694 610.63061391 187.75724587 610.63085788 C190.71057694 610.63183283 193.66390799 610.63285364 196.61723902 610.63394299 C224.30391138 610.64401936 251.99050055 610.62577805 279.67715335 610.59422263 C304.27649753 610.5663456 328.87574285 610.56140704 353.47509766 610.57641602 C359.77783388 610.58023844 366.08057012 610.58403323 372.3833065 610.5875864 C373.54721473 610.58824312 373.54721473 610.58824312 374.73463625 610.58891311 C395.29382026 610.60014877 415.85299699 610.59280748 436.41217864 610.57970566 C438.62379827 610.57831709 440.8354179 610.57693638 443.04703754 610.57556724 C444.51414773 610.57465786 445.98125792 610.57373519 447.44836809 610.57279913 C458.40537104 610.56600127 469.36234545 610.56866514 480.31934738 610.57574654 C492.77243068 610.58370699 505.22539665 610.57677178 517.67846029 610.5515715 C524.0346265 610.5390495 530.39062688 610.53296287 536.74679947 610.54411316 C542.56078734 610.55412005 548.37444379 610.54577167 554.18839116 610.52253198 C556.2957913 610.5173532 558.4032209 610.51896934 560.51060836 610.52792663 C563.36763811 610.53906363 566.22353584 610.52575108 569.08049583 610.50615788 C569.90518928 610.51523669 570.72988274 610.52431551 571.5795669 610.53366944 C576.87340408 610.46254143 579.72692302 609.37974344 584 606 C585.33870629 605.30280757 586.69122617 604.63072965 588.0625 604 C591.42693833 602.3691463 594.15062129 600.44232461 597 598 C597.99 597.34 598.98 596.68 600 596 C601.36990881 593.96026747 601.36990881 593.96026747 602.5625 591.625 C602.97628906 590.85414063 603.39007812 590.08328125 603.81640625 589.2890625 C604.20699219 588.53367187 604.59757813 587.77828125 605 587 C605.35964844 586.38898437 605.71929688 585.77796875 606.08984375 585.1484375 C608.47902084 579.50874908 608.14392364 573.10013019 608.12863445 567.07400703 C608.13038749 566.19404892 608.13214053 565.31409081 608.13394669 564.40746731 C608.13860202 561.4561282 608.13614238 558.50483847 608.13371277 555.55349731 C608.13558097 553.41722316 608.13788171 551.28094936 608.14057809 549.14467609 C608.14670127 543.27184794 608.14656189 537.39903401 608.14538372 531.52620339 C608.14517984 525.19344122 608.15069715 518.86068363 608.15544128 512.52792358 C608.16375101 500.12047567 608.16650921 487.71303347 608.16705366 475.30558313 C608.16751323 465.2223969 608.16957169 455.1392122 608.17275429 445.05602646 C608.17365183 442.15346523 608.17454164 439.25090401 608.17542917 436.34834278 C608.17565021 435.6267583 608.17587126 434.90517383 608.17609901 434.16172315 C608.18225283 413.86613226 608.18619961 393.5705419 608.18575573 373.27495003 C608.18574015 372.50981749 608.18572457 371.74468495 608.18570852 370.95636658 C608.18562541 367.07836151 608.18552637 363.20035643 608.18542381 359.32235135 C608.18540387 358.55216576 608.18538392 357.78198017 608.18536337 356.98845562 C608.18532294 355.43095333 608.18528114 353.87345105 608.18523798 352.31594876 C608.18462513 328.0799299 608.19213375 303.84392502 608.20581055 279.60791016 C608.22116996 252.37899687 608.22977687 225.15009278 608.22884732 197.92117488 C608.22877269 195.01798495 608.22872399 192.11479501 608.22869301 189.21160507 C608.22868135 188.49676543 608.2286697 187.78192579 608.22865769 187.04542435 C608.22862692 175.54089626 608.23501323 164.03638031 608.24362527 152.53185583 C608.25210063 140.97088613 608.25292096 129.40994044 608.24651595 117.84896816 C608.2432447 111.58566436 608.2432159 105.32240457 608.2518692 99.05910492 C608.25970826 93.32627608 608.25832935 87.59352637 608.24958507 81.86069952 C608.24804436 79.78606483 608.24988762 77.71142431 608.25544515 75.63679649 C608.26249896 72.81699358 608.25721641 69.99746872 608.24888897 67.17767525 C608.25634124 65.96956492 608.25634124 65.96956492 608.26394406 64.73704833 C608.22979606 59.26752991 607.3718911 54.28803992 606 49 C605.77699219 48.11828125 605.55398438 47.2365625 605.32421875 46.328125 C603.78625394 41.3085098 602.10172546 38.46367928 598 35 C597.34128906 34.38769531 596.68257812 33.77539062 596.00390625 33.14453125 C592.12425107 29.14849738 592.12425107 29.14849738 587 28 C586.67 27.01 586.34 26.02 586 25 C580.27746576 21.92108653 574.05001472 21.5667929 567.69294167 21.61688995 C566.7960797 21.61193044 565.89921773 21.60697092 564.97517812 21.60186112 C561.97823028 21.58893631 558.98173026 21.59727988 555.98477173 21.60559082 C553.81107085 21.60070046 551.63737258 21.59450999 549.46367872 21.58713293 C543.49658112 21.57072892 537.5296156 21.57305233 531.56250334 21.5785079 C525.12474667 21.58117749 518.68702526 21.56664767 512.24928284 21.55441284 C499.63956507 21.53271404 487.02988781 21.52879945 474.42015411 21.53060073 C464.17160083 21.53197435 453.9230615 21.52815344 443.67451096 21.52067566 C442.20156145 21.51962532 440.72861194 21.5185777 439.25566243 21.5175328 C438.52448524 21.51701345 437.79330806 21.51649411 437.03997398 21.51595903 C436.30745182 21.51543888 435.57492966 21.51491874 434.82020986 21.51438284 C434.0864523 21.51385885 433.35269474 21.51333486 432.59670209 21.51279498 C411.96245095 21.49821405 391.32820493 21.48992818 370.69394875 21.49454498 C369.91625294 21.49471694 369.13855713 21.49488889 368.33729478 21.49506606 C364.39571832 21.49595493 360.45414188 21.49689975 356.51256545 21.49786407 C355.72977047 21.4980551 354.9469755 21.49824613 354.14045946 21.49844296 C352.55745857 21.49883005 350.97445768 21.49922038 349.3914568 21.49961393 C324.7589797 21.50558419 300.12659654 21.49014359 275.49414062 21.45800781 C247.81251816 21.42192459 220.13095526 21.40259896 192.4493078 21.40754652 C189.4972454 21.40801649 186.54518299 21.40842675 183.59312057 21.40879822 C182.86626043 21.4089006 182.13940028 21.40900299 181.39051407 21.40910848 C170.42238033 21.41030285 159.454311 21.39834226 148.48619461 21.37965393 C136.01122241 21.35840825 123.53639491 21.35503617 111.0614164 21.37395352 C104.69650701 21.38311893 98.3318666 21.38422916 91.96697807 21.36359787 C86.13899349 21.34491578 80.31149873 21.34936103 74.48353295 21.37214369 C72.37662084 21.37633632 70.26967137 21.37210726 68.16279872 21.35854775 C50.42363498 21.25216737 38.07964171 24.26349621 26.5625 38.81640625 Z " fill="#030303" transform="translate(0,0)"/>
<path d="M0 0 C2.47863975 0.86940699 4.99132239 1.58498452 7.52099609 2.29003906 C14.11150019 4.24533696 20.0292032 7.11408547 25.89599609 10.66503906 C26.96333984 11.10589844 28.03068359 11.54675781 29.13037109 12.00097656 C45.69277754 19.01708561 60.04982259 32.39799633 72.89599609 44.66503906 C73.55083984 45.26703125 74.20568359 45.86902344 74.88037109 46.48925781 C89.12199401 59.95098233 102.84920448 80.02342108 109.16162109 98.61425781 C110.0700748 101.15116312 111.17910455 103.57654301 112.27099609 106.04003906 C117.5507229 118.73690472 120.36813942 131.49827985 121.53662109 145.16503906 C121.67181582 148.51127555 121.67181582 148.51127555 122.89599609 150.66503906 C123.14796973 155.47201854 123.08972826 160.28957792 123.08349609 165.10253906 C123.08355652 165.80355743 123.08361694 166.50457581 123.0836792 167.22683716 C123.06635573 181.28523915 122.52449296 195.02006135 118.89599609 208.66503906 C118.23599609 208.66503906 117.57599609 208.66503906 116.89599609 208.66503906 C116.98880859 210.39753906 116.98880859 210.39753906 117.08349609 212.16503906 C117.10873965 216.87717027 115.74074121 220.36063379 113.89599609 224.66503906 C115.78318359 225.22191406 115.78318359 225.22191406 117.70849609 225.79003906 C132.53728789 230.83368768 142.26368597 239.53990867 149.52099609 253.39160156 C152.15430978 259.66068358 153.14560536 265.3476547 153.1566925 272.12080383 C153.16051805 272.82633257 153.1643436 273.5318613 153.16828507 274.25876969 C153.17852065 276.59910483 153.17464109 278.93919027 153.1706543 281.27954102 C153.17500606 282.96728744 153.18019075 284.65503189 153.18614197 286.34277344 C153.19949452 290.91109681 153.20011472 295.47933725 153.19757867 300.04767632 C153.19650623 303.86948246 153.2013994 307.69127201 153.20618409 311.51307458 C153.21726673 320.53468938 153.21772394 329.55626255 153.21166992 338.57788086 C153.20563305 347.86529681 153.21793672 357.15256115 153.23923999 366.43995124 C153.25689126 374.43088629 153.26285172 382.42177324 153.25960225 390.41272706 C153.25779457 395.17773862 153.26037374 399.94264208 153.27431679 404.70763588 C153.28694768 409.19175406 153.28490155 413.67563707 153.2719059 418.15975189 C153.26955184 419.79833495 153.27223248 421.43693483 153.28052902 423.07549858 C153.33574435 434.83550726 151.9122698 444.91588113 146.89599609 455.66503906 C146.23599609 455.66503906 145.57599609 455.66503906 144.89599609 455.66503906 C144.58662109 456.68597656 144.58662109 456.68597656 144.27099609 457.72753906 C138.91968029 469.15989556 127.54830254 474.11042163 116.51708984 478.76269531 C115.60619598 479.14961044 114.69530212 479.53652557 113.75680542 479.93516541 C103.73773246 484.17815106 93.69059651 488.35302545 83.61572266 492.46166992 C81.52544685 493.31667782 79.43727189 494.17683723 77.35107422 495.04174805 C74.279577 496.31465286 71.20197111 497.57158158 68.12255859 498.82519531 C67.19649811 499.21256363 66.27043762 499.59993195 65.3163147 499.9990387 C60.24893133 502.03922585 56.3639201 503.12373247 50.89599609 502.66503906 C50.23599609 501.34503906 49.57599609 500.02503906 48.89599609 498.66503906 C48.23599609 498.66503906 47.57599609 498.66503906 46.89599609 498.66503906 C46.52099609 495.97753906 46.52099609 495.97753906 46.89599609 492.66503906 C50.86204378 488.82241764 54.56190211 486.67394866 59.72412109 484.60644531 C60.37846634 484.34078262 61.03281158 484.07511993 61.70698547 483.80140686 C63.11587409 483.23096368 64.52677974 482.66548125 65.93948364 482.10455322 C68.18352119 481.2126241 70.42100754 480.30576108 72.6574707 479.39501953 C79.76847115 476.50483367 86.89702453 473.66040644 94.03842163 470.84623718 C97.11212206 469.63123602 100.18001701 468.40199006 103.24719238 467.17062378 C105.40562062 466.31109512 107.57169019 465.47340922 109.73876953 464.63598633 C119.97223012 460.58529385 129.7514899 454.89206945 134.89599609 444.66503906 C136.51434746 439.76022643 137.14958487 435.5167834 137.16342163 430.36076355 C137.1702183 429.30881907 137.1702183 429.30881907 137.17715228 428.23562318 C137.18973492 425.90367708 137.18817992 423.57196636 137.18652344 421.23999023 C137.19251253 419.56062014 137.19931895 417.8812528 137.20687866 416.20188904 C137.22450705 411.65217563 137.22923271 407.10253752 137.23051023 402.55279326 C137.23193417 399.70684707 137.23620837 396.86091987 137.24150467 394.01497841 C137.25999444 384.07662369 137.26817659 374.13832253 137.26660156 364.19995117 C137.26540043 354.9516924 137.28649999 345.70366711 137.31808889 336.4554674 C137.34428269 328.50193381 137.35496756 320.54847633 137.35369074 312.59489995 C137.35318203 307.85054356 137.35881518 303.10639476 137.38004684 298.36208153 C137.39948164 293.8976279 137.39951807 289.4335788 137.38501358 284.96911049 C137.38293087 283.33655325 137.38759412 281.70397034 137.3997345 280.07145691 C137.48555162 267.72586533 136.09485241 258.03020848 127.32177734 248.71191406 C120.9043812 243.29691313 112.84056434 239.54600808 104.42949486 239.53081799 C102.71502995 239.52413122 102.71502995 239.52413122 100.96592939 239.51730937 C99.07389923 239.51758591 99.07389923 239.51758591 97.14364624 239.51786804 C95.79453571 239.51456917 94.44542617 239.51084355 93.09631789 239.50672656 C89.38075375 239.49670097 85.66520577 239.49298887 81.94963002 239.49033725 C77.94537624 239.48643582 73.94113526 239.47685732 69.93688965 239.46812439 C60.26207922 239.4483547 50.58726773 239.43829281 40.91244215 239.4293966 C36.35699834 239.42501424 31.80155571 239.41964727 27.24611282 239.41440773 C12.10349201 239.39739441 -3.03912807 239.38290033 -18.18175697 239.37565899 C-22.11205674 239.37374907 -26.0423565 239.37182875 -29.97265625 239.36987305 C-30.9495206 239.36938931 -31.92638494 239.36890557 -32.93285124 239.36840717 C-48.7566734 239.36010725 -64.58041995 239.33477145 -80.40420909 239.30229237 C-96.64827731 239.26922237 -112.8923071 239.25121025 -129.13640916 239.24801475 C-138.25760928 239.24584952 -147.37869917 239.23709908 -156.49986649 239.21155357 C-164.26818857 239.18984734 -172.03637365 239.18179574 -179.80472262 239.19152036 C-183.76738698 239.19606539 -187.72976866 239.19416725 -191.69239426 239.17475891 C-195.3234365 239.15712847 -198.95398985 239.15812357 -202.58503728 239.1736562 C-204.51387251 239.17715426 -206.44271287 239.16100494 -208.37147677 239.14405173 C-220.76193235 239.23581684 -229.18600189 243.74703704 -237.85400391 252.41503906 C-244.48214389 261.98901905 -244.68836963 271.35496381 -244.64990234 282.58935547 C-244.65864949 284.28539981 -244.66913924 285.98143591 -244.68122864 287.67745972 C-244.70896953 292.25530027 -244.71249597 296.83286996 -244.71150875 301.41078234 C-244.71464813 306.20477318 -244.74028763 310.99864386 -244.76348877 315.79257202 C-244.80397394 324.85872507 -244.82437186 333.92480633 -244.83746266 342.99103582 C-244.8533581 353.31761674 -244.89178442 363.64407592 -244.93205595 373.97058606 C-245.01435245 395.20203019 -245.06850855 416.43346847 -245.10400391 437.66503906 C-244.44400391 437.66503906 -243.78400391 437.66503906 -243.10400391 437.66503906 C-242.88486328 438.29410156 -242.66572266 438.92316406 -242.43994141 439.57128906 C-238.52328688 450.14307202 -233.00659144 457.11737097 -223.10400391 462.66503906 C-220.75676655 463.61119062 -218.42211576 464.50157539 -216.04150391 465.35253906 C-203.48597468 469.95588874 -190.99922316 474.77265789 -178.88525391 480.44628906 C-174.60806924 482.32056099 -170.23262516 483.92135038 -165.84716797 485.52294922 C-160.26850269 487.56491426 -154.83491825 489.88766429 -149.41259766 492.31347656 C-141.72498509 495.75036123 -134.0378477 498.85197598 -126.08056641 501.61816406 C-121.85059497 503.10587055 -117.78980409 504.86943039 -113.73681641 506.78222656 C-107.43444695 509.72333231 -101.06912036 512.13271544 -94.50244141 514.41894531 C-90.5925815 515.85256061 -86.87734686 517.56264648 -83.11181641 519.33300781 C-69.56568673 525.47236763 -69.56568673 525.47236763 -55.16650391 527.97753906 C-53.60609375 528.03361328 -53.60609375 528.03361328 -52.01416016 528.09082031 C-42.50147399 527.05497337 -33.3521781 522.67058597 -24.56494141 519.04003906 C-23.51803131 518.61126465 -22.47112122 518.18249023 -21.39248657 517.74072266 C-18.08647436 516.3858264 -14.78268572 515.02560632 -11.47900391 513.66503906 C-8.16768459 512.30570623 -4.85591797 510.94746775 -1.5440979 509.58935547 C0.50433688 508.74885859 2.55239731 507.90744853 4.6000061 507.06494141 C6.46506211 506.29794059 8.33088681 505.53280556 10.1975708 504.76977539 C12.02865948 504.020127 13.8573306 503.26455142 15.68377686 502.50366211 C16.56640198 502.14054932 17.4490271 501.77743652 18.35839844 501.40332031 C19.13984222 501.07887939 19.92128601 500.75443848 20.72640991 500.42016602 C24.88857307 498.97152036 28.28593411 499.00450081 32.33349609 500.66503906 C34.44232071 503.36433457 34.33592906 505.38043155 34.32958984 508.72753906 C33.76436174 511.25324302 32.85821227 511.99056392 30.89599609 513.66503906 C28.69569397 514.76921082 28.69569397 514.76921082 26.09936523 515.80639648 C25.12306656 516.20078415 24.14676788 516.59517181 23.1408844 517.00151062 C22.08167282 517.42027969 21.02246124 517.83904877 19.93115234 518.27050781 C18.82863632 518.71340652 17.7261203 519.15630524 16.5901947 519.61262512 C13.0491428 521.03316493 9.50393462 522.44298815 5.95849609 523.85253906 C3.63594849 524.78217343 1.31367974 525.71250479 -1.00830078 526.64355469 C-5.55206969 528.4643026 -10.09826032 530.27879038 -14.64648438 532.08837891 C-18.79730755 533.74099499 -22.94218595 535.40702975 -27.08105469 537.08935547 C-27.99850967 537.46095291 -28.91596466 537.83255035 -29.86122131 538.21540833 C-31.55246141 538.90108824 -33.24237767 539.5900469 -34.9306488 540.28300476 C-48.00509163 545.57006953 -61.26440972 545.50487911 -74.22900391 540.04003906 C-76.73734798 538.95035851 -79.23469171 537.84030475 -81.72607422 536.71240234 C-85.29481682 535.14054343 -88.93976612 533.80737068 -92.60400391 532.47753906 C-100.87309723 529.41638924 -109.01434529 526.13922303 -116.97900391 522.35253906 C-123.52597502 519.32348654 -130.33333038 516.98725448 -137.13671875 514.60717773 C-142.04583844 512.86905584 -146.67807484 510.96502208 -151.29614258 508.56030273 C-153.99937217 507.22164738 -156.80600322 506.29915481 -159.66650391 505.35253906 C-166.2375365 503.07740735 -172.39194471 500.2778124 -178.63134766 497.21582031 C-182.0850257 495.67351415 -185.46866375 494.68708898 -189.10400391 493.66503906 C-191.03962551 492.81093281 -192.95657617 491.91343247 -194.85400391 490.97753906 C-200.28129393 488.40409385 -205.75712891 486.29466184 -211.41650391 484.29003906 C-230.0948578 477.581879 -245.00266632 470.03837994 -255.04150391 452.22753906 C-256.10400391 449.66503906 -256.10400391 449.66503906 -256.10400391 446.66503906 C-256.76400391 446.66503906 -257.42400391 446.66503906 -258.10400391 446.66503906 C-260.4769959 437.78689981 -260.40777288 428.96375307 -260.41040039 419.85522461 C-260.41803389 418.17042682 -260.4264634 416.48563247 -260.43562317 414.80084229 C-260.45745462 410.24904698 -260.46635142 405.69731879 -260.47144961 401.14547706 C-260.47510594 398.29530349 -260.48135247 395.44514718 -260.488451 392.59498024 C-260.5129037 382.63370627 -260.52598884 372.67248408 -260.52954102 362.71118164 C-260.53317552 353.45435258 -260.56307563 344.19785521 -260.6049456 334.94112748 C-260.63973031 326.9688027 -260.65509085 318.99658747 -260.65578705 311.02418739 C-260.65657691 306.2735763 -260.66518169 301.52330387 -260.69378471 296.77277184 C-260.72010701 292.30164167 -260.72209234 287.83112763 -260.70612907 283.35995483 C-260.70432593 281.72864746 -260.71090157 280.09730344 -260.72694778 278.46607399 C-260.87959654 261.92654138 -256.13975319 249.14444653 -244.79150391 236.91503906 C-238.31208974 230.76901757 -230.65147383 227.0186902 -222.10400391 224.66503906 C-222.24495455 223.03960826 -222.39192478 221.41469855 -222.54150391 219.79003906 C-222.62271484 218.88511719 -222.70392578 217.98019531 -222.78759766 217.04785156 C-222.97389675 214.65393046 -222.97389675 214.65393046 -224.10400391 212.66503906 C-224.60096009 209.4257883 -225.00085356 206.17833774 -225.40869141 202.92675781 C-225.74521776 200.53030014 -226.20810242 198.27150104 -226.82788086 195.9284668 C-229.15849564 187.10964278 -229.5989699 178.81475641 -229.55004883 169.75512695 C-229.54154997 167.365492 -229.57039497 164.97826737 -229.60205078 162.58886719 C-229.64308944 153.32558351 -228.63149162 145.09668521 -226.09790039 136.17944336 C-225.12339124 132.7335924 -224.39314942 129.30735158 -223.72900391 125.79003906 C-214.77490077 83.16072195 -187.34150215 44.63281221 -151.10400391 20.66503906 C-145.55130698 17.12588963 -139.86385872 13.85260753 -134.10400391 10.66503906 C-133.24935547 10.17519531 -132.39470703 9.68535156 -131.51416016 9.18066406 C-92.80033659 -11.77514905 -41.05026315 -14.75078559 0 0 Z M-78.10400391 8.66503906 C-80.45307849 8.94156508 -82.8086726 9.16479034 -85.16650391 9.35253906 C-106.17369474 11.58328284 -128.2818901 22.21621206 -145.10400391 34.66503906 C-145.91973877 35.26300293 -145.91973877 35.26300293 -146.75195312 35.87304688 C-153.31983763 40.70823077 -159.53596561 45.67706491 -165.10400391 51.66503906 C-170.10400391 56.66503906 -170.10400391 56.66503906 -171.99072266 58.37597656 C-181.8827069 67.6463819 -191.02736664 80.08470441 -196.22509766 92.65722656 C-197.24218171 94.98069858 -198.38466912 97.22047303 -199.54150391 99.47753906 C-206.26498271 112.84397596 -210.39341705 126.71417201 -212.35400391 141.54003906 C-212.5216626 142.80235352 -212.68932129 144.06466797 -212.86206055 145.36523438 C-214.84055392 161.30985917 -214.65251314 176.65390515 -212.85400391 192.60253906 C-212.74499756 193.57223633 -212.63599121 194.54193359 -212.52368164 195.54101562 C-211.40693783 204.23216391 -209.2714711 211.99517029 -207.10400391 220.66503906 C-105.79400391 220.66503906 -4.48400391 220.66503906 99.89599609 220.66503906 C100.55599609 218.35503906 101.21599609 216.04503906 101.89599609 213.66503906 C102.39080729 212.12165854 102.88678419 210.57865093 103.38427734 209.03613281 C109.95018004 187.14841311 110.35723179 164.07035943 106.89599609 141.66503906 C106.23599609 141.66503906 105.57599609 141.66503906 104.89599609 141.66503906 C104.98880859 141.01921875 105.08162109 140.37339844 105.17724609 139.70800781 C105.89381462 130.35422936 102.65915575 123.4702773 98.84130859 115.18066406 C97.54356783 112.325877 96.55865756 109.63316454 95.86865234 106.57519531 C94.91096333 102.33505352 93.19848173 98.70057235 91.20849609 94.85253906 C90.67567017 93.80888184 90.67567017 93.80888184 90.13208008 92.74414062 C87.05952913 86.81405567 83.69295238 81.16322901 79.89599609 75.66503906 C79.30044922 74.77171875 78.70490234 73.87839844 78.09130859 72.95800781 C62.80476768 51.21781051 41.43793447 34.55361103 17.89599609 22.66503906 C17.21730469 22.32214844 16.53861328 21.97925781 15.83935547 21.62597656 C-3.2101939 12.12924341 -24.2079376 6.5296356 -45.58447266 6.49707031 C-46.36035233 6.49374191 -47.13623199 6.49041351 -47.93562317 6.48698425 C-49.56164971 6.48195905 -51.1876864 6.47957455 -52.8137207 6.47973633 C-55.29541831 6.47753559 -57.7766807 6.4592948 -60.25830078 6.44042969 C-61.8461899 6.43749762 -63.43408111 6.43551158 -65.02197266 6.43457031 C-65.75852585 6.4273848 -66.49507904 6.42019928 -67.25395203 6.41279602 C-71.35534813 6.43096392 -74.38753161 6.95938777 -78.10400391 8.66503906 Z " fill="#060808" transform="translate(365.10400390625,55.3349609375)"/>
<path d="M0 0 C1.01009266 3.72650762 2.00628554 7.45659459 3 11.1875 C3.28617187 12.24259766 3.57234375 13.29769531 3.8671875 14.38476562 C4.27324219 15.91713867 4.27324219 15.91713867 4.6875 17.48046875 C4.93886719 18.41785889 5.19023437 19.35524902 5.44921875 20.32104492 C5.9922969 22.96253273 6.1023122 25.31217316 6 28 C6.64710938 27.84015625 7.29421875 27.6803125 7.9609375 27.515625 C20.66950511 25.35941559 34.34328163 26.06969608 45.3125 33.1875 C52.0298296 38.23884643 56.94052971 44.36807898 58.51953125 52.76171875 C59.23113178 59.868236 58.60672031 65.34329051 56 72 C55.34 72 54.68 72 54 72 C53.71125 72.763125 53.4225 73.52625 53.125 74.3125 C52 77 52 77 50 80 C50.68964844 80.21914062 51.37929688 80.43828125 52.08984375 80.6640625 C63.61222364 84.552273 73.47410639 90.75743425 79.9375 101.3125 C83.36217311 108.58993036 82.75024014 117.15801624 82 125 C81.34 125.99 80.68 126.98 80 128 C79.61500109 129.65549531 79.27206865 131.3222433 79 133 C78.34 133 77.68 133 77 133 C76.91621094 133.55945313 76.83242188 134.11890625 76.74609375 134.6953125 C74.28559157 142.29581662 66.30261366 147.93781953 59.65234375 151.74609375 C53.06324404 154.86111733 47.89343219 156.44770477 40.65625 156.34057617 C39.86504257 156.34101425 39.07383514 156.34145233 38.25865173 156.34190369 C35.67217367 156.33983208 33.08636326 156.31657921 30.5 156.29296875 C28.69539748 156.28736698 26.89079037 156.28309963 25.08618164 156.28010559 C20.3580444 156.26870253 15.63018774 156.23927484 10.90216064 156.20599365 C6.06892694 156.17519448 1.2356475 156.16157928 -3.59765625 156.14648438 C-13.06522681 156.11440044 -22.53258998 156.06325951 -32 156 C-32 155.34 -32 154.68 -32 154 C-30.02 153.01 -30.02 153.01 -28 152 C-28.37994939 147.12064992 -28.80134359 142.365517 -30.0625 137.625 C-31 134 -31 134 -31 130 C-31.66 130 -32.32 130 -33 130 C-33.12117188 129.29875 -33.24234375 128.5975 -33.3671875 127.875 C-34.15811054 123.3971588 -34.96115072 118.96018765 -36.125 114.5625 C-37 111 -37 111 -37 107 C-37.66 107 -38.32 107 -39 107 C-39.14695312 106.18402344 -39.29390625 105.36804688 -39.4453125 104.52734375 C-41.02091068 96.2056499 -42.89075719 87.96852895 -44.9375 79.75 C-45.17807129 78.73800537 -45.41864258 77.72601074 -45.66650391 76.68334961 C-45.90933105 75.73081299 -46.1521582 74.77827637 -46.40234375 73.796875 C-46.61366943 72.94448242 -46.82499512 72.09208984 -47.04272461 71.21386719 C-48.21461504 68.5036651 -49.49723471 67.51259066 -52 66 C-58.55360579 64.79309834 -65.59095956 66.65829434 -72 68 C-72.67286212 65.58490559 -73.33846012 63.16819644 -74 60.75 C-74.19078125 60.06808594 -74.3815625 59.38617188 -74.578125 58.68359375 C-75.49957044 55.29399088 -76 52.54221024 -76 49 C-71.62254197 47.85759207 -67.24427929 46.71834123 -62.86523438 45.58203125 C-61.37509885 45.19488183 -59.88518846 44.80686479 -58.39550781 44.41796875 C-56.25644335 43.85970426 -54.11659336 43.30454674 -51.9765625 42.75 C-51.30879791 42.57500977 -50.64103333 42.40001953 -49.95303345 42.21972656 C-45.22774341 41 -45.22774341 41 -43 41 C-43.20496094 39.9378125 -43.40992188 38.875625 -43.62109375 37.78125 C-43.89336142 36.35419189 -44.16548933 34.92710712 -44.4375 33.5 C-44.57220703 32.80390625 -44.70691406 32.1078125 -44.84570312 31.390625 C-45.75371019 26.60697802 -46.43896713 21.8368659 -47 17 C-47.66 17 -48.32 17 -49 17 C-49 15.35 -49 13.7 -49 12 C-46.75194998 11.32678716 -44.50147776 10.66165877 -42.25 10 C-40.99703125 9.62875 -39.7440625 9.2575 -38.453125 8.875 C-35 8 -35 8 -31 8 C-28.87111461 15.67202093 -27.45406625 23.04601192 -27 31 C-26.34 31 -25.68 31 -25 31 C-25 32.65 -25 34.3 -25 36 C-24.31292969 35.7834375 -23.62585938 35.566875 -22.91796875 35.34375 C-22.01691406 35.0653125 -21.11585938 34.786875 -20.1875 34.5 C-19.29417969 34.2215625 -18.40085937 33.943125 -17.48046875 33.65625 C-15 33 -15 33 -12 33 C-12 30.36 -12 27.72 -12 25 C-12.66 25 -13.32 25 -14 25 C-14 22.36 -14 19.72 -14 17 C-14.66 17 -15.32 17 -16 17 C-17.22690072 12.47580359 -18.13191623 8.70776045 -18 4 C-15.5636811 3.32873871 -13.12611117 2.66283646 -10.6875 2 C-9.99720703 1.80921875 -9.30691406 1.6184375 -8.59570312 1.421875 C-5.64212051 0.62283816 -3.07440781 0 0 0 Z " fill="#FAFDFD" transform="translate(306,120)"/>
<path d="M0 0 C1.15264994 -0.00521549 2.30529989 -0.01043099 3.49287862 -0.01580453 C5.37794007 -0.00911236 5.37794007 -0.00911236 7.30108356 -0.002285 C8.65706004 -0.00459039 10.01303527 -0.00776744 11.36900789 -0.01173949 C15.08941023 -0.02008511 18.80970992 -0.01596332 22.53011262 -0.00976706 C26.54442405 -0.00524276 30.55871779 -0.01222613 34.5730257 -0.0177269 C42.43395509 -0.02662204 50.29484629 -0.02469856 58.15577718 -0.01890162 C64.54243516 -0.01438658 70.92908242 -0.01377154 77.31574154 -0.01594925 C78.67870061 -0.01640895 78.67870061 -0.01640895 80.0691942 -0.01687793 C81.91498381 -0.01751737 83.76077341 -0.0181658 85.60656301 -0.01882312 C102.91504333 -0.02452651 120.22350246 -0.01796786 137.5319793 -0.00722238 C152.39271284 0.00171766 167.25341516 0.00015737 182.11414814 -0.00905991 C199.36495154 -0.01975457 216.61573639 -0.02398196 233.86654264 -0.01783538 C235.70466061 -0.01719826 237.54277859 -0.01656952 239.38089657 -0.01594925 C240.73755073 -0.01548642 240.73755073 -0.01548642 242.12161204 -0.01501425 C248.50425725 -0.01328523 254.88689072 -0.01620676 261.26953411 -0.02090836 C269.04232509 -0.02650807 276.81507565 -0.02501978 284.58786198 -0.01434687 C288.55579508 -0.00907855 292.52366071 -0.00705312 296.49159336 -0.01364517 C300.12023765 -0.01958258 303.74875161 -0.01636634 307.37738398 -0.00569007 C309.3194369 -0.00237981 311.26149878 -0.00894659 313.20354241 -0.01580453 C314.34836911 -0.01058903 315.49319581 -0.00537354 316.67271423 0 C317.66470878 0.0003247 318.65670333 0.00064941 319.67875832 0.00098395 C322.14759541 0.25168228 322.14759541 0.25168228 325.14759541 2.25168228 C218.22759541 2.25168228 111.30759541 2.25168228 1.14759541 2.25168228 C0.48759541 3.90168228 -0.17240459 5.55168228 -0.85240459 7.25168228 C-1.51240459 7.25168228 -2.17240459 7.25168228 -2.85240459 7.25168228 C-2.97615459 8.11793228 -3.09990459 8.98418228 -3.22740459 9.87668228 C-3.83349829 13.14958826 -4.77009188 16.11033562 -5.85240459 19.25168228 C-5.08049786 19.23073502 -4.30859112 19.20978775 -3.51329327 19.18820572 C-0.02229574 19.10515556 3.46849421 19.05305634 6.96009541 19.00168228 C8.17503681 18.96816666 9.38997822 18.93465103 10.64173603 18.90011978 C11.80511494 18.88722916 12.96849384 18.87433853 14.16712666 18.86105728 C15.7774477 18.82963638 15.7774477 18.82963638 17.42030048 18.79758072 C20.14759541 19.25168228 20.14759541 19.25168228 21.9901247 21.05734634 C23.71723756 24.33161135 23.66699013 26.61591922 23.14759541 30.25168228 C21.02622005 32.61155545 19.3409191 34.06330865 16.14320087 34.56808853 C13.86082858 34.644994 11.61645385 34.60112121 9.33509541 34.50168228 C8.54683369 34.48363541 7.75857197 34.46558853 6.94642353 34.44699478 C5.0129528 34.40012276 3.08011256 34.32838638 1.14759541 34.25168228 C1.20560322 35.13211197 1.26361103 36.01254166 1.32337666 36.91965103 C1.69485484 46.48256091 1.69485484 46.48256091 -1.16490459 50.50168228 C-3.85240459 52.25168228 -3.85240459 52.25168228 -6.85240459 53.25168228 C-6.85240459 56.22168228 -6.85240459 59.19168228 -6.85240459 62.25168228 C-6.08927959 62.54043228 -5.32615459 62.82918228 -4.53990459 63.12668228 C-1.85240459 64.25168228 -1.85240459 64.25168228 1.14759541 66.25168228 C1.54200459 68.12895584 1.54200459 68.12895584 1.56751728 70.43844986 C1.58342915 71.30307343 1.59934101 72.16769699 1.61573505 73.05852127 C1.61593647 73.99495972 1.61613789 74.93139816 1.61634541 75.89621353 C1.62776569 77.3391201 1.62776569 77.3391201 1.63941669 78.8111763 C1.65023662 80.84966814 1.65306315 82.8882155 1.64857197 84.92673111 C1.64760236 88.04185488 1.68914546 91.15449436 1.73353291 94.26926041 C1.73874181 96.24907298 1.74142807 98.22889411 1.74134541 100.20871353 C1.7659383 101.60426216 1.7659383 101.60426216 1.79102802 103.02800369 C1.74256152 107.58057646 1.64289363 109.60554043 -1.20201397 113.31686783 C-3.85240459 115.25168228 -3.85240459 115.25168228 -6.85240459 116.25168228 C-6.85240459 119.22168228 -6.85240459 122.19168228 -6.85240459 125.25168228 C-6.08927959 125.54043228 -5.32615459 125.82918228 -4.53990459 126.12668228 C-1.85240459 127.25168228 -1.85240459 127.25168228 1.14759541 129.25168228 C1.54200459 131.12895584 1.54200459 131.12895584 1.56751728 133.43844986 C1.58342915 134.30307343 1.59934101 135.16769699 1.61573505 136.05852127 C1.61593647 136.99495972 1.61613789 137.93139816 1.61634541 138.89621353 C1.62776569 140.3391201 1.62776569 140.3391201 1.63941669 141.8111763 C1.65023662 143.84966814 1.65306315 145.8882155 1.64857197 147.92673111 C1.64760236 151.04185488 1.68914546 154.15449436 1.73353291 157.26926041 C1.73874181 159.24907298 1.74142807 161.22889411 1.74134541 163.20871353 C1.75774067 164.13907928 1.77413593 165.06944504 1.79102802 166.02800369 C1.74256152 170.58057646 1.64289363 172.60554043 -1.20201397 176.31686783 C-3.85240459 178.25168228 -3.85240459 178.25168228 -6.85240459 179.25168228 C-6.85240459 182.22168228 -6.85240459 185.19168228 -6.85240459 188.25168228 C-6.19240459 188.31355728 -5.53240459 188.37543228 -4.85240459 188.43918228 C-2.0820835 189.18947758 -0.78169408 189.86944796 1.52259541 191.43918228 C5.24788298 193.88302695 9.12846596 195.53969248 13.27259541 197.12668228 C20.83200288 200.02399283 27.9682826 203.51268732 35.14759541 207.25168228 C35.7517144 214.5011102 35.7517144 214.5011102 33.08509541 217.81418228 C28.37154736 220.12081217 24.39754109 218.6525316 19.54212666 217.09543228 C18.36005634 216.65199478 17.17798603 216.20855728 15.96009541 215.75168228 C10.6324866 213.74246778 10.6324866 213.74246778 5.14759541 212.25168228 C8.90020944 217.40419725 12.34544682 219.79612139 18.14759541 222.31418228 C18.89871601 222.65360855 19.64983662 222.99303482 20.42371845 223.34274673 C25.91086378 225.79281279 31.47437734 228.01706106 37.10853291 230.10715103 C40.13704882 231.24771037 43.10817289 232.48315197 46.08509541 233.75168228 C50.47355611 235.60587959 54.89856967 237.24742891 59.39759541 238.81418228 C63.79521267 240.35526868 67.86231976 242.03286861 71.96400166 244.22043228 C76.09392926 246.1708811 80.46062308 247.5338123 84.76868916 249.03683853 C88.18421389 250.264848 91.46156363 251.64448621 94.75697041 253.15793228 C102.07757942 256.50723053 109.49062719 259.65961961 117.02259541 262.50168228 C124.55492941 265.35300971 131.96927403 268.48202811 139.395154 271.59836197 C145.62282396 274.21012992 151.86846923 276.76618058 158.14759541 279.25168228 C159.35029072 279.72992447 160.55298603 280.20816666 161.79212666 280.70090103 C162.83755634 281.10953384 163.88298603 281.51816666 164.96009541 281.93918228 C166.01841572 282.35554947 167.07673603 282.77191666 168.16712666 283.20090103 C170.8353373 284.14159391 173.3629088 284.78327843 176.14759541 285.25168228 C171.57077009 289.8285076 164.18134127 290.49927971 157.96009541 290.81418228 C150.60350225 290.6414923 144.6116381 287.99599199 138.02503681 285.05539322 C135.03717417 283.7763238 131.97053333 282.74372054 128.89759541 281.68918228 C123.69581455 279.86152955 118.71723069 277.77439177 113.72572041 275.43918228 C107.78741582 272.7039632 101.68231172 270.43218792 95.52259541 268.25168228 C92.27710906 267.08803452 89.20285663 265.84790039 86.14759541 264.25168228 C82.25030791 262.21590406 78.22667705 260.78305275 74.08509541 259.32199478 C67.88101553 257.06146568 61.82310866 254.41912267 55.77259541 251.77902603 C52.01573192 250.19612342 48.22552516 248.77466831 44.39759541 247.37668228 C39.82259177 245.68428591 35.31820549 243.9470946 30.89759541 241.87668228 C25.86426538 239.52226104 20.74444568 237.4353489 15.58509541 235.37668228 C14.72915791 235.03411392 13.87322041 234.69154556 12.99134541 234.33859634 C8.72349474 232.64006833 4.44601462 230.98065562 0.13587666 229.39230728 C-15.44248265 223.62020176 -15.44248265 223.62020176 -20.85240459 218.25168228 C-21.67224834 217.45310806 -21.67224834 217.45310806 -22.50865459 216.63840103 C-26.93797916 211.9159594 -30.85240459 205.8774273 -30.85240459 199.25168228 C-31.51240459 199.25168228 -32.17240459 199.25168228 -32.85240459 199.25168228 C-32.96935604 177.01570988 -33.05745064 154.7797884 -33.11146545 132.54357052 C-33.13721534 122.2182237 -33.17230432 111.89306832 -33.22960186 101.56784439 C-33.27953534 92.56533625 -33.31171897 83.5629668 -33.32284707 74.56032401 C-33.329349 69.79617851 -33.34456306 65.03242965 -33.38105488 60.26841164 C-33.41517171 55.77776609 -33.42542612 51.2876779 -33.417943 46.79691505 C-33.41931057 45.15508361 -33.42914938 43.51323215 -33.44843197 41.87151337 C-33.58791752 29.37530198 -31.67984056 19.44835726 -22.80943584 10.03683853 C-16.13689327 3.95030768 -9.1988237 0.00300953 0 0 Z " fill="#7CAEF1" transform="translate(152.8524045944214,293.74831771850586)"/>
<path d="M0 0 C0.75166443 -0.00428513 1.50332886 -0.00857025 2.277771 -0.01298523 C3.8713684 -0.01871737 5.46499196 -0.01923701 7.05859375 -0.01489258 C9.43538514 -0.01178285 11.810867 -0.03502632 14.1875 -0.06054688 C24.83957329 -0.10415064 34.82142565 1.10088163 45.234375 3.30078125 C46.44295166 3.55456543 47.65152832 3.80834961 48.89672852 4.06982422 C52.02926653 4.748 55.13041334 5.50228418 58.234375 6.30078125 C59.26691406 6.56375 60.29945313 6.82671875 61.36328125 7.09765625 C70.61252242 9.68517402 78.82922649 13.74791071 87.234375 18.30078125 C87.9257959 18.66945313 88.6172168 19.038125 89.32958984 19.41796875 C120.48162446 36.19047288 144.46221437 62.31381925 159.234375 94.30078125 C159.59144531 94.94144531 159.94851563 95.58210938 160.31640625 96.2421875 C161.45670991 98.79937911 161.98986214 101.43034473 162.63183594 104.14648438 C163.44458591 107.0523619 164.65204667 109.70050266 165.90014648 112.44165039 C169.43952219 120.22395295 171.28857808 126.61615586 170.234375 135.30078125 C170.894375 135.30078125 171.554375 135.30078125 172.234375 135.30078125 C176.26981173 161.42302791 174.18282838 188.00007049 166.234375 213.30078125 C165.234375 214.30078125 165.234375 214.30078125 162.94921875 214.3984375 C161.57443359 214.38103516 161.57443359 214.38103516 160.171875 214.36328125 C159.25277344 214.35425781 158.33367187 214.34523438 157.38671875 214.3359375 C156.67644531 214.32433594 155.96617187 214.31273437 155.234375 214.30078125 C155.40565918 213.58647949 155.57694336 212.87217773 155.75341797 212.13623047 C166.40015224 167.51483976 166.1059735 125.89472004 142.94140625 85.06640625 C132.92418587 68.83713387 119.83426293 53.20612552 104.046875 42.30078125 C102.6546875 41.31078125 102.6546875 41.31078125 101.234375 40.30078125 C101.234375 39.64078125 101.234375 38.98078125 101.234375 38.30078125 C100.5640625 38.0584375 99.89375 37.81609375 99.203125 37.56640625 C95.53357199 36.00201786 92.18114581 34.0492212 88.734375 32.05078125 C53.50748222 12.00837893 13.39968679 5.92698747 -25.9753418 16.30175781 C-62.93764818 26.68925951 -95.77217855 50.26476021 -115.765625 83.30078125 C-134.84860551 117.58461989 -139.58337438 153.59391677 -135.765625 192.30078125 C-135.105625 192.30078125 -134.445625 192.30078125 -133.765625 192.30078125 C-133.6625 193.45578125 -133.559375 194.61078125 -133.453125 195.80078125 C-132.99323539 199.57320902 -131.97884935 202.76396851 -130.484375 206.24609375 C-129.765625 208.30078125 -129.765625 208.30078125 -128.765625 214.30078125 C-133.055625 214.30078125 -137.345625 214.30078125 -141.765625 214.30078125 C-152.63670546 177.27288789 -153.80304009 128.97021751 -135.078125 94.05078125 C-134.32290925 92.79128405 -133.55461058 91.53940378 -132.765625 90.30078125 C-131.09559336 87.60303783 -129.72765712 85.20286408 -128.578125 82.23828125 C-121.77048977 65.92832184 -107.23025348 50.44307014 -93.765625 39.30078125 C-92.99089844 38.62660156 -92.21617187 37.95242187 -91.41796875 37.2578125 C-70.46217234 19.39955462 -43.86109024 5.09794647 -16.12109375 2.72265625 C-12.87524701 2.4825794 -12.87524701 2.4825794 -10.54125977 1.29321289 C-7.00786079 0.02984172 -3.70434925 -0.00476645 0 0 Z " fill="#0FBB8C" transform="translate(299.765625,61.69921875)"/>
<path d="M0 0 C0 0.66 0 1.32 0 2 C0.53367187 2.226875 1.06734375 2.45375 1.6171875 2.6875 C4.77002759 4.42414635 7.40451196 6.66815311 10.125 9 C10.69903564 9.49129395 11.27307129 9.98258789 11.86450195 10.48876953 C41.37520642 36.00865879 59.80697195 72.00740234 63 111 C64.15412672 132.67303489 61.78759029 154.31856291 55 175 C54 176 54 176 50.9375 176.0625 C49.968125 176.041875 48.99875 176.02125 48 176 C48.28482368 174.58194169 48.57818144 173.16559621 48.875 171.75 C49.11863281 170.56664062 49.11863281 170.56664062 49.3671875 169.359375 C50 167 50 167 50.90869141 165.38208008 C56.3800939 153.4392447 56.64817125 139.04223688 56.52148438 126.14819336 C56.50002856 123.56593723 56.5214421 120.98647028 56.546875 118.40429688 C56.58788223 94.50797276 50.4145636 60.76689649 32.94921875 42.90234375 C31.98435547 41.96068359 31.98435547 41.96068359 31 41 C30.01684757 39.2699721 29.03501744 37.53899522 28.08056641 35.79296875 C26.32162683 32.87438487 24.02772451 30.45276656 21.6875 28 C21.19894531 27.47946045 20.71039063 26.9589209 20.20703125 26.42260742 C18.81174141 24.94172688 17.40617461 23.47054884 16 22 C15.37738281 21.33613281 14.75476563 20.67226562 14.11328125 19.98828125 C-7.63138672 -2.59879517 -38.90043493 -17.50923249 -70 -21 C-70.96679688 -21.10957031 -71.93359375 -21.21914062 -72.9296875 -21.33203125 C-111.78460986 -25.11660161 -149.7600053 -14.16788472 -180.12744141 10.44726562 C-210.81170879 35.89080416 -229.02692733 71.39661533 -233 111 C-234.28899565 130.52828416 -232.31415272 150.68490709 -225.875 169.2421875 C-225 172 -225 172 -225 176 C-226.65 176 -228.3 176 -230 176 C-230.27714844 175.07316406 -230.55429688 174.14632812 -230.83984375 173.19140625 C-231.20207031 171.99386719 -231.56429687 170.79632813 -231.9375 169.5625 C-232.29714844 168.36753906 -232.65679687 167.17257812 -233.02734375 165.94140625 C-233.70889142 163.14132455 -233.70889142 163.14132455 -235 162 C-235.14115161 159.32941149 -235.04247107 156.67567762 -235 154 C-235.66 154 -236.32 154 -237 154 C-238.80370318 145.04582796 -239.38816443 136.37466596 -239.375 127.25 C-239.37412384 126.57769348 -239.37324768 125.90538696 -239.37234497 125.21270752 C-239.18588527 81.45726195 -221.84582997 42.70562165 -191 12 C-139.92123312 -35.06967762 -56.53824898 -42.45002956 0 0 Z " fill="#E5F8F3" transform="translate(401,100)"/>
<path d="M0 0 C1.25937378 -0.03323364 1.25937378 -0.03323364 2.54418945 -0.06713867 C8.40093386 -0.04688914 12.86783087 1.12597083 17.75 4.4375 C22.33670439 9.3770278 22.96534091 12.40238566 22.91796875 18.94921875 C22.7278763 21.76523943 22.07853141 23.9465036 20.75 26.4375 C20.09 26.4375 19.43 26.4375 18.75 26.4375 C18.523125 27.015 18.29625 27.5925 18.0625 28.1875 C13.79677843 35.50016555 4.20266654 38.57298305 -3.5703125 40.64453125 C-15.93633953 43.71881144 -15.93633953 43.71881144 -21.25 43.4375 C-21.58 41.1275 -21.91 38.8175 -22.25 36.4375 C-22.91 36.4375 -23.57 36.4375 -24.25 36.4375 C-24.73164188 34.08381607 -25.21036648 31.72959845 -25.6875 29.375 C-25.82220703 28.71822266 -25.95691406 28.06144531 -26.09570312 27.38476562 C-26.96470632 23.08214005 -27.6672492 18.78832876 -28.25 14.4375 C-28.91 14.4375 -29.57 14.4375 -30.25 14.4375 C-30.58 11.7975 -30.91 9.1575 -31.25 6.4375 C-28.26008218 5.39102876 -25.26767565 4.39865351 -22.25 3.4375 C-20.97962891 3.00824219 -20.97962891 3.00824219 -19.68359375 2.5703125 C-13.12388599 0.61079809 -6.80420066 0.09667716 0 0 Z " fill="#0EC190" transform="translate(331.25,221.5625)"/>
<path d="M0 0 C0.70116943 -0.00966797 1.40233887 -0.01933594 2.12475586 -0.02929688 C8.25851543 0.07076206 12.19450643 1.85296039 16.6875 5.9375 C20.11989877 9.75127641 21.41977201 12.04798702 21.23828125 17.25390625 C20.57322387 22.08205012 18.7294265 25.72994672 15.1953125 29.09765625 C6.1814637 35.74749565 -5.96111726 39.15017009 -17.0625 39.4375 C-19.57716171 30.77068919 -21.68515298 22.51269588 -22.0625 13.4375 C-22.7225 13.4375 -23.3825 13.4375 -24.0625 13.4375 C-24.0625 10.4675 -24.0625 7.4975 -24.0625 4.4375 C-16.00246357 1.8094823 -8.4964246 0.03736745 0 0 Z " fill="#11C292" transform="translate(312.0625,170.5625)"/>
<path d="M0 0 C3.51563017 0.70312603 5.1064483 1.83289953 7.5 4.5 C8.14105083 8.41753284 7.96982239 10.60306635 6.125 14.125 C-0.54640767 20.16103551 -9.66292932 22.84637744 -17.9375 26.07421875 C-20.87378824 27.24937797 -23.7112816 28.51200202 -26.5625 29.875 C-30.02681067 31.41831133 -32.67182375 32.30124619 -36.5 31.5 C-38.9375 29.4375 -38.9375 29.4375 -40.5 26.5 C-40.5625 22.9375 -40.5625 22.9375 -39.5 19.5 C-36.06762209 16.27079423 -32.65156991 14.53150718 -28.28125 12.84375 C-27.10175781 12.37839844 -25.92226563 11.91304688 -24.70703125 11.43359375 C-22.23567708 10.47786458 -19.76432292 9.52213542 -17.29296875 8.56640625 C-16.11347656 8.10105469 -14.93398438 7.63570313 -13.71875 7.15625 C-12.64560547 6.74181641 -11.57246094 6.32738281 -10.46679688 5.90039062 C-6.70069784 4.12271254 -4.05030798 0.8100616 0 0 Z " fill="#07090C" transform="translate(475.5,481.5)"/>
<path d="M0 0 C0.86454803 -0.01591187 1.72909607 -0.03182373 2.61984253 -0.04821777 C3.55111969 -0.04841919 4.48239685 -0.04862061 5.44189453 -0.04882812 C6.4024173 -0.05644165 7.36294006 -0.06405518 8.35256958 -0.07189941 C10.38508505 -0.08270727 12.41765608 -0.08555075 14.45019531 -0.08105469 C17.5564478 -0.08008383 20.66021855 -0.12166682 23.76611328 -0.16601562 C25.74136855 -0.17122373 27.7166324 -0.1739108 29.69189453 -0.17382812 C30.61912323 -0.19022339 31.54635193 -0.20661865 32.50167847 -0.22351074 C37.06112747 -0.17479113 39.07863004 -0.04620121 42.82519531 2.765625 C44.69970703 5.41992188 44.69970703 5.41992188 44.69970703 8.48242188 C43.07196235 13.26392187 43.07196235 13.26392187 40.69970703 15.41992188 C37.53247407 16.03143246 34.39289384 15.955751 31.17626953 15.91601562 C30.23794281 15.91747086 29.29961609 15.91892609 28.33285522 15.92042542 C26.34736021 15.91876511 24.3618525 15.90718918 22.37646484 15.88647461 C19.34302784 15.85759629 16.31134646 15.86584775 13.27783203 15.87890625 C11.34813606 15.87266643 9.4184456 15.8642736 7.48876953 15.85351562 C6.58341461 15.85645126 5.67805969 15.8593869 4.74526978 15.8624115 C-0.04181764 15.79104573 -3.46220343 15.62481911 -7.30029297 12.41992188 C-7.89404297 10.26367188 -7.89404297 10.26367188 -7.80029297 7.91992188 C-7.78998047 7.14648438 -7.77966797 6.37304688 -7.76904297 5.57617188 C-6.81524712 1.18871095 -4.23971329 0.04697245 0 0 Z " fill="#07080B" transform="translate(391.30029296875,312.580078125)"/>
<path d="M0 0 C0.86454803 -0.01591187 1.72909607 -0.03182373 2.61984253 -0.04821777 C3.55111969 -0.04841919 4.48239685 -0.04862061 5.44189453 -0.04882812 C6.4024173 -0.05644165 7.36294006 -0.06405518 8.35256958 -0.07189941 C10.38508505 -0.08270727 12.41765608 -0.08555075 14.45019531 -0.08105469 C17.5564478 -0.08008383 20.66021855 -0.12166682 23.76611328 -0.16601562 C25.74136855 -0.17122373 27.7166324 -0.1739108 29.69189453 -0.17382812 C30.61912323 -0.19022339 31.54635193 -0.20661865 32.50167847 -0.22351074 C37.06112747 -0.17479113 39.07863004 -0.04620121 42.82519531 2.765625 C44.69970703 5.41992188 44.69970703 5.41992188 44.69970703 8.48242188 C43.07196235 13.26392187 43.07196235 13.26392187 40.69970703 15.41992188 C37.53247407 16.03143246 34.39289384 15.955751 31.17626953 15.91601562 C30.23794281 15.91747086 29.29961609 15.91892609 28.33285522 15.92042542 C26.34736021 15.91876511 24.3618525 15.90718918 22.37646484 15.88647461 C19.34302784 15.85759629 16.31134646 15.86584775 13.27783203 15.87890625 C11.34813606 15.87266643 9.4184456 15.8642736 7.48876953 15.85351562 C6.58341461 15.85645126 5.67805969 15.8593869 4.74526978 15.8624115 C-0.04181764 15.79104573 -3.46220343 15.62481911 -7.30029297 12.41992188 C-7.89404297 10.26367188 -7.89404297 10.26367188 -7.80029297 7.91992188 C-7.78998047 7.14648438 -7.77966797 6.37304688 -7.76904297 5.57617188 C-6.81524712 1.18871095 -4.23971329 0.04697245 0 0 Z " fill="#07080B" transform="translate(328.30029296875,312.580078125)"/>
<path d="M0 0 C1.9375 1.125 1.9375 1.125 3 3 C3.76399871 9.00284703 3.76399871 9.00284703 1.46240234 12.00683594 C-1.69747972 14.56456717 -5.0908223 15.98013604 -8.8359375 17.453125 C-9.59290924 17.75820984 -10.34988098 18.06329468 -11.12979126 18.37762451 C-12.72642353 19.01790557 -14.32514413 19.65300059 -15.92578125 20.28320312 C-18.36582602 21.24637869 -20.79626131 22.23128647 -23.2265625 23.21875 C-24.78332526 23.83986896 -26.34060104 24.45970393 -27.8984375 25.078125 C-28.62050385 25.37180969 -29.34257019 25.66549438 -30.08651733 25.96807861 C-34.17607011 27.55888966 -37.53761649 28.53274806 -42 28 C-44.88629588 25.41752474 -45.86270511 23.74749439 -46.5625 19.9375 C-45.79699604 15.9398682 -44.32042694 15.29390795 -41 13 C-38.44747497 11.74777519 -35.93991588 10.59851014 -33.3203125 9.51171875 C-32.58932343 9.20426224 -31.85833435 8.89680573 -31.10519409 8.58003235 C-29.56559234 7.93629574 -28.02413598 7.29697871 -26.48095703 6.66186523 C-24.13168713 5.69026563 -21.79464119 4.69262988 -19.45703125 3.69335938 C-17.95379959 3.06868667 -16.44991336 2.44558634 -14.9453125 1.82421875 C-14.25341827 1.52537277 -13.56152405 1.22652679 -12.84866333 0.91862488 C-8.16530494 -0.96769525 -4.89804189 -1.17073841 0 0 Z " fill="#07090B" transform="translate(364,532)"/>
<path d="M0 0 C0.86777573 -0.00945648 1.73555145 -0.01891296 2.62962341 -0.02865601 C3.56403763 -0.02258331 4.49845184 -0.01651062 5.46118164 -0.01025391 C6.42407608 -0.01312408 7.38697052 -0.01599426 8.37904358 -0.01895142 C10.41578764 -0.0209932 12.45255125 -0.01545536 14.48925781 -0.00292969 C17.60599713 0.01310467 20.72143619 -0.0027657 23.83813477 -0.02197266 C25.81665325 -0.0199899 27.79517093 -0.01614556 29.77368164 -0.01025391 C30.70607162 -0.0163266 31.63846161 -0.02239929 32.59910583 -0.02865601 C38.98152644 0.04064393 38.98152644 0.04064393 42.26806641 1.66699219 C44.22375664 4.04457731 44.21438109 6.35006127 44.31274414 9.35302734 C43.29752247 12.63830988 41.57943547 13.5846796 38.68383789 15.38818359 C35.50246917 15.9634177 32.37444972 15.92544103 29.14868164 15.88427734 C27.77517296 15.88646019 27.77517296 15.88646019 26.37391663 15.88868713 C24.44325571 15.88703101 22.5125812 15.87550185 20.58203125 15.85473633 C17.62776657 15.82574668 14.67529345 15.83414023 11.72094727 15.84716797 C9.84268334 15.84093122 7.96442508 15.83254077 6.08618164 15.82177734 C4.76262917 15.8261808 4.76262917 15.8261808 3.41233826 15.83067322 C-2.67564258 15.7370074 -2.67564258 15.7370074 -5.87280273 13.99584961 C-7.7651109 11.88812815 -7.82377136 10.69255348 -7.75366211 7.88818359 C-7.75237305 7.11474609 -7.75108398 6.34130859 -7.74975586 5.54443359 C-6.86135638 1.12644702 -4.23345836 0.01324414 0 0 Z " fill="#07090C" transform="translate(258.316162109375,312.61181640625)"/>
<path d="M0 0 C0.86777573 -0.00945648 1.73555145 -0.01891296 2.62962341 -0.02865601 C3.56403763 -0.02258331 4.49845184 -0.01651062 5.46118164 -0.01025391 C6.42407608 -0.01312408 7.38697052 -0.01599426 8.37904358 -0.01895142 C10.41578764 -0.0209932 12.45255125 -0.01545536 14.48925781 -0.00292969 C17.60599713 0.01310467 20.72143619 -0.0027657 23.83813477 -0.02197266 C25.81665325 -0.0199899 27.79517093 -0.01614556 29.77368164 -0.01025391 C30.70607162 -0.0163266 31.63846161 -0.02239929 32.59910583 -0.02865601 C38.98152644 0.04064393 38.98152644 0.04064393 42.26806641 1.66699219 C44.22375664 4.04457731 44.21438109 6.35006127 44.31274414 9.35302734 C43.29752247 12.63830988 41.57943547 13.5846796 38.68383789 15.38818359 C35.50246917 15.9634177 32.37444972 15.92544103 29.14868164 15.88427734 C27.77517296 15.88646019 27.77517296 15.88646019 26.37391663 15.88868713 C24.44325571 15.88703101 22.5125812 15.87550185 20.58203125 15.85473633 C17.62776657 15.82574668 14.67529345 15.83414023 11.72094727 15.84716797 C9.84268334 15.84093122 7.96442508 15.83254077 6.08618164 15.82177734 C4.76262917 15.8261808 4.76262917 15.8261808 3.41233826 15.83067322 C-2.67564258 15.7370074 -2.67564258 15.7370074 -5.87280273 13.99584961 C-7.7651109 11.88812815 -7.82377136 10.69255348 -7.75366211 7.88818359 C-7.75237305 7.11474609 -7.75108398 6.34130859 -7.74975586 5.54443359 C-6.86135638 1.12644702 -4.23345836 0.01324414 0 0 Z " fill="#07090C" transform="translate(195.316162109375,312.61181640625)"/>
<path d="M0 0 C2.18554688 0.91235352 2.18554688 0.91235352 4 3 C4.62007041 6.25154772 4.55985827 9.4758463 4.53125 12.77734375 C4.5350769 13.74023819 4.53890381 14.70313263 4.54284668 15.69520569 C4.54556907 17.73195439 4.53818507 19.76873787 4.52148438 21.80541992 C4.50010285 24.92250674 4.52126313 28.03728248 4.546875 31.15429688 C4.54423132 33.13281759 4.53910552 35.11133686 4.53125 37.08984375 C4.53934692 38.02223373 4.54744385 38.95462372 4.55578613 39.91526794 C4.46260418 46.35170689 4.46260418 46.35170689 2.15039062 49.59204102 C-0.79956738 51.52351329 -2.53255112 51.49534984 -6 51 C-8.65209961 50.09960938 -8.65209961 50.09960938 -11 48 C-11.77283423 44.66976944 -11.67596117 41.3738609 -11.62890625 37.96875 C-11.63131821 36.98128784 -11.63373016 35.99382568 -11.63621521 34.97644043 C-11.63523557 32.88838689 -11.62181426 30.80030776 -11.59692383 28.71240234 C-11.56262645 25.51180004 -11.57625585 22.31395875 -11.59570312 19.11328125 C-11.5888047 17.08592572 -11.57913235 15.05857733 -11.56640625 13.03125 C-11.57136612 12.07182495 -11.57632599 11.1123999 -11.58143616 10.12390137 C-11.56559982 9.2328772 -11.54976349 8.34185303 -11.53344727 7.42382812 C-11.5241494 6.24826355 -11.5241494 6.24826355 -11.5146637 5.0489502 C-11 3 -11 3 -9.18540955 1.24694824 C-5.99214123 -0.5750628 -3.60993993 -0.38677928 0 0 Z " fill="#030405" transform="translate(480,420)"/>
<path d="M0 0 C2.18554688 0.91235352 2.18554688 0.91235352 4 3 C4.62007041 6.25154772 4.55985827 9.4758463 4.53125 12.77734375 C4.5350769 13.74023819 4.53890381 14.70313263 4.54284668 15.69520569 C4.54556907 17.73195439 4.53818507 19.76873787 4.52148438 21.80541992 C4.50010285 24.92250674 4.52126313 28.03728248 4.546875 31.15429688 C4.54423132 33.13281759 4.53910552 35.11133686 4.53125 37.08984375 C4.53934692 38.02223373 4.54744385 38.95462372 4.55578613 39.91526794 C4.46260418 46.35170689 4.46260418 46.35170689 2.15039062 49.59204102 C-0.79956738 51.52351329 -2.53255112 51.49534984 -6 51 C-8.65209961 50.09960938 -8.65209961 50.09960938 -11 48 C-11.77283423 44.66976944 -11.67596117 41.3738609 -11.62890625 37.96875 C-11.63131821 36.98128784 -11.63373016 35.99382568 -11.63621521 34.97644043 C-11.63523557 32.88838689 -11.62181426 30.80030776 -11.59692383 28.71240234 C-11.56262645 25.51180004 -11.57625585 22.31395875 -11.59570312 19.11328125 C-11.5888047 17.08592572 -11.57913235 15.05857733 -11.56640625 13.03125 C-11.57136612 12.07182495 -11.57632599 11.1123999 -11.58143616 10.12390137 C-11.56559982 9.2328772 -11.54976349 8.34185303 -11.53344727 7.42382812 C-11.5241494 6.24826355 -11.5241494 6.24826355 -11.5146637 5.0489502 C-11 3 -11 3 -9.18540955 1.24694824 C-5.99214123 -0.5750628 -3.60993993 -0.38677928 0 0 Z " fill="#06080A" transform="translate(150,420)"/>
<path d="M0 0 C2.18554688 0.91235352 2.18554688 0.91235352 4 3 C4.62007041 6.25154772 4.55985827 9.4758463 4.53125 12.77734375 C4.5350769 13.74023819 4.53890381 14.70313263 4.54284668 15.69520569 C4.54556907 17.73195439 4.53818507 19.76873787 4.52148438 21.80541992 C4.50010285 24.92250674 4.52126313 28.03728248 4.546875 31.15429688 C4.54423132 33.13281759 4.53910552 35.11133686 4.53125 37.08984375 C4.53934692 38.02223373 4.54744385 38.95462372 4.55578613 39.91526794 C4.46260418 46.35170689 4.46260418 46.35170689 2.15039062 49.59204102 C-0.79956738 51.52351329 -2.53255112 51.49534984 -6 51 C-8.65209961 50.09960938 -8.65209961 50.09960938 -11 48 C-11.77283423 44.66976944 -11.67596117 41.3738609 -11.62890625 37.96875 C-11.63131821 36.98128784 -11.63373016 35.99382568 -11.63621521 34.97644043 C-11.63523557 32.88838689 -11.62181426 30.80030776 -11.59692383 28.71240234 C-11.56262645 25.51180004 -11.57625585 22.31395875 -11.59570312 19.11328125 C-11.5888047 17.08592572 -11.57913235 15.05857733 -11.56640625 13.03125 C-11.57136612 12.07182495 -11.57632599 11.1123999 -11.58143616 10.12390137 C-11.56559982 9.2328772 -11.54976349 8.34185303 -11.53344727 7.42382812 C-11.5241494 6.24826355 -11.5241494 6.24826355 -11.5146637 5.0489502 C-11 3 -11 3 -9.18540955 1.24694824 C-5.99214123 -0.5750628 -3.60993993 -0.38677928 0 0 Z " fill="#030405" transform="translate(480,357)"/>
<path d="M0 0 C2.18554688 0.91235352 2.18554688 0.91235352 4 3 C4.62007041 6.25154772 4.55985827 9.4758463 4.53125 12.77734375 C4.5350769 13.74023819 4.53890381 14.70313263 4.54284668 15.69520569 C4.54556907 17.73195439 4.53818507 19.76873787 4.52148438 21.80541992 C4.50010285 24.92250674 4.52126313 28.03728248 4.546875 31.15429688 C4.54423132 33.13281759 4.53910552 35.11133686 4.53125 37.08984375 C4.53934692 38.02223373 4.54744385 38.95462372 4.55578613 39.91526794 C4.46260418 46.35170689 4.46260418 46.35170689 2.15039062 49.59204102 C-0.79956738 51.52351329 -2.53255112 51.49534984 -6 51 C-8.65209961 50.09960938 -8.65209961 50.09960938 -11 48 C-11.77283423 44.66976944 -11.67596117 41.3738609 -11.62890625 37.96875 C-11.63131821 36.98128784 -11.63373016 35.99382568 -11.63621521 34.97644043 C-11.63523557 32.88838689 -11.62181426 30.80030776 -11.59692383 28.71240234 C-11.56262645 25.51180004 -11.57625585 22.31395875 -11.59570312 19.11328125 C-11.5888047 17.08592572 -11.57913235 15.05857733 -11.56640625 13.03125 C-11.57136612 12.07182495 -11.57632599 11.1123999 -11.58143616 10.12390137 C-11.56559982 9.2328772 -11.54976349 8.34185303 -11.53344727 7.42382812 C-11.5241494 6.24826355 -11.5241494 6.24826355 -11.5146637 5.0489502 C-11 3 -11 3 -9.18540955 1.24694824 C-5.99214123 -0.5750628 -3.60993993 -0.38677928 0 0 Z " fill="#06080A" transform="translate(150,357)"/>
<path d="M0 0 C3.0113713 1.04537604 5.88376109 2.27538547 8.79296875 3.578125 C11.99145959 4.99621351 15.21803327 6.22690628 18.5 7.4375 C34.53947368 13.53947368 34.53947368 13.53947368 38 17 C38.34913681 20.70085019 38.4335393 23.17421087 36.6875 26.5 C32.18348443 29.01386915 27.89896258 28.14005113 23 27 C20.35447946 25.90163656 17.89924255 24.63834103 15.390625 23.2578125 C13.14736179 22.07753349 11.0386217 21.25534204 8.625 20.5 C4.8992111 19.32238458 1.25943663 17.99967506 -2.375 16.5625 C-3.37273437 16.17191406 -4.37046875 15.78132812 -5.3984375 15.37890625 C-8.21365486 13.88675651 -9.43590879 12.75280054 -11 10 C-11.35773097 6.60155579 -11.58904125 4.14126742 -10 1.0625 C-6.64843104 -0.71802101 -3.63402155 -0.62716178 0 0 Z " fill="#06080A" transform="translate(267,532)"/>
<path d="M0 0 C2.0016651 2.56213133 2.04452015 4.77105739 2.09375 7.96484375 C1.31920897 10.93201932 -0.06498519 12.09089793 -2.4375 14 C-5.15234375 15.16796875 -5.15234375 15.16796875 -8.375 16.1875 C-15.87292222 18.69733081 -23.0392275 21.79217508 -30.23999023 25.0534668 C-31.10052002 25.43414307 -31.9610498 25.81481934 -32.84765625 26.20703125 C-33.99439819 26.72487183 -33.99439819 26.72487183 -35.16430664 27.25317383 C-37.76145619 28.10643132 -39.72057792 28.2776848 -42.4375 28 C-45.52560106 25.2457477 -46.35273454 23.53684793 -47 19.4375 C-46.4375 16 -46.4375 16 -44.35498047 13.98730469 C-41.11615048 11.78110585 -37.8093723 10.22696392 -34.1953125 8.765625 C-33.50871552 8.48273621 -32.82211853 8.19984741 -32.11471558 7.90838623 C-30.66920391 7.31599874 -29.22190679 6.72795124 -27.77294922 6.14404297 C-25.56998041 5.25302554 -23.37687446 4.34034441 -21.18359375 3.42578125 C-19.77137803 2.85022419 -18.35863382 2.27596181 -16.9453125 1.703125 C-16.29716583 1.43131409 -15.64901917 1.15950317 -14.98123169 0.87945557 C-9.93079282 -1.12259217 -5.15108937 -2.11326744 0 0 Z " fill="#06080A" transform="translate(423.4375,509)"/>
<path d="M0 0 C1.0725 -0.02835937 2.145 -0.05671875 3.25 -0.0859375 C9.12218506 -0.10040101 13.3858028 0.15889819 17.92456055 4.10766602 C22.54036294 8.95642657 22.74451829 13.14016688 22.6875 19.5625 C22.7174707 20.76616211 22.7174707 20.76616211 22.74804688 21.99414062 C22.74485497 25.84038209 22.71827679 27.85711153 20.40625 31.03125 C17.45856911 33.0390906 15.75438346 33.00062621 12.25 32.5 C9.578125 31.421875 9.578125 31.421875 7.25 29.5 C6.76171875 26.14453125 6.76171875 26.14453125 6.9375 22.3125 C7.00517578 20.40404297 7.00517578 20.40404297 7.07421875 18.45703125 C7.13222656 17.48121094 7.19023437 16.50539063 7.25 15.5 C6.08082031 15.53480469 4.91164063 15.56960938 3.70703125 15.60546875 C2.15886859 15.63361716 0.61069032 15.66091619 -0.9375 15.6875 C-1.70642578 15.71263672 -2.47535156 15.73777344 -3.26757812 15.76367188 C-7.8529587 15.82271111 -11.16089374 15.70683459 -14.75 12.5 C-15.34375 10.34375 -15.34375 10.34375 -15.25 8 C-15.2396875 7.2265625 -15.229375 6.453125 -15.21875 5.65625 C-13.63002945 -1.65186453 -5.9020608 -0.01398593 0 0 Z " fill="#050709" transform="translate(461.75,312.5)"/>
<path d="M0 0 C1.10601562 -0.02449219 2.21203125 -0.04898437 3.3515625 -0.07421875 C4.41117188 -0.07808594 5.47078125 -0.08195312 6.5625 -0.0859375 C7.53316406 -0.09415527 8.50382812 -0.10237305 9.50390625 -0.11083984 C12 0.375 12 0.375 13.80859375 2.18505859 C15.58565238 5.45149628 15.52130648 7.72585465 15 11.375 C12.87862465 13.73487317 11.1933237 15.18662637 7.99560547 15.69140625 C5.71323317 15.76831172 3.46885844 15.72443893 1.1875 15.625 C0.00510742 15.59792969 0.00510742 15.59792969 -1.20117188 15.5703125 C-3.13464261 15.52344048 -5.06748285 15.4517041 -7 15.375 C-6.95359375 16.26703125 -6.9071875 17.1590625 -6.859375 18.078125 C-6.82328125 19.24859375 -6.7871875 20.4190625 -6.75 21.625 C-6.70359375 22.78515625 -6.6571875 23.9453125 -6.609375 25.140625 C-7 28.375 -7 28.375 -8.83203125 30.76953125 C-11.77299006 32.94743048 -13.41086855 32.88773306 -17 32.375 C-19.64453125 31.421875 -19.64453125 31.421875 -22 29.375 C-22.82810523 26.31341266 -22.80603103 23.34411426 -22.75 20.1875 C-22.74331299 19.32777588 -22.73662598 18.46805176 -22.72973633 17.58227539 C-22.53373032 12.6080891 -22.08151669 9.18931737 -18.6875 5.3125 C-12.59522756 -0.11562534 -7.88797813 0.00919345 0 0 Z " fill="#06080A" transform="translate(161,312.625)"/>
<path d="M0 0 C1.95351722 1.03473971 3.70158638 2.26354199 5.5234375 3.515625 C8.58759021 5.35218341 11.79870817 6.60792176 15.125 7.875 C22.68483625 10.77078547 29.8209215 14.26112707 37 18 C37.60411899 25.24942792 37.60411899 25.24942792 34.9375 28.5625 C30.31892984 30.82265136 26.76738513 29.59089975 22.0769043 28.02270508 C18.65818397 26.76647904 15.26520867 25.45619428 11.875 24.125 C10.70839844 23.67769531 9.54179687 23.23039062 8.33984375 22.76953125 C-6.25568094 17.10185328 -6.25568094 17.10185328 -10 11 C-10.32670315 7.2102435 -10.20190901 4.60572704 -9 1 C-5.82912985 -0.58543507 -3.52009516 -0.34065437 0 0 Z " fill="#06070A" transform="translate(151,483)"/>
<path d="M0 0 C6.73712376 2.18782885 13.23469509 5.02042997 19.671875 7.96484375 C23.50337061 9.66844498 27.40610425 11.20112653 31.30078125 12.75390625 C33.89440999 13.95125439 35.91371925 15.05020491 38 17 C38.46268457 20.63537875 38.40708036 23.06610977 36.9375 26.4375 C33.96782445 28.83239964 31.75379851 28.28153489 28 28 C25.09161968 27.17730226 22.34553279 26.04773216 19.5625 24.875 C17.97848828 24.22763847 16.39383797 23.58183754 14.80859375 22.9375 C14.01179199 22.61136719 13.21499023 22.28523437 12.39404297 21.94921875 C10.08262816 21.0327614 7.75897094 20.19021563 5.41015625 19.375 C4.3272229 18.99432373 4.3272229 18.99432373 3.22241211 18.60595703 C1.86138199 18.13163225 0.49642711 17.66836905 -0.87280273 17.21826172 C-5.22914681 15.67189327 -7.55800568 13.93130937 -10 10 C-10.42008548 6.51929175 -10.64483445 4.17587459 -8.9375 1.0625 C-5.85174367 -0.62968895 -3.36722088 -0.62270523 0 0 Z " fill="#050708" transform="translate(208,508)"/>
<path d="M0 0 C0.33 0 0.66 0 1 0 C1.38001477 30.4625689 1.38001477 30.4625689 0.125 41.9375 C0.04652832 42.65526611 -0.03194336 43.37303223 -0.11279297 44.11254883 C-0.70523002 48.86284782 -1.77240727 53.38363236 -3 58 C-3.33 58 -3.66 58 -4 58 C-4.17150212 52.94068736 -3.95209365 48.32876923 -3.0625 43.34375 C-1.67908518 34.66088869 -1.30307567 25.95780941 -0.875 17.1875 C-0.78836211 15.51233856 -0.70112636 13.83720794 -0.61328125 12.16210938 C-0.40197718 8.10839421 -0.19870826 4.0543513 0 0 Z " fill="#626262" transform="translate(487,206)"/>
<path d="M0 0 C0.66 0.33 1.32 0.66 2 1 C-4.82626992 9.15822503 -12.43799837 16.53279684 -20 24 C-20.66 23.67 -21.32 23.34 -22 23 C-14.99792665 14.98470673 -7.57474917 7.46938171 0 0 Z " fill="#272727" transform="translate(198,88)"/>
<path d="M0 0 C0.66 0.33 1.32 0.66 2 1 C-5.26 8.26 -12.52 15.52 -20 23 C-20.66 22.67 -21.32 22.34 -22 22 C-19.65213939 19.45244671 -17.29557543 16.91309815 -14.9375 14.375 C-13.95233398 13.30572266 -13.95233398 13.30572266 -12.94726562 12.21484375 C-8.85219311 7.81717967 -4.63719168 3.82312032 0 0 Z " fill="#2FCAA0" transform="translate(221,109)"/>
<path d="M0 0 C0.77943466 0.00222061 1.55886932 0.00444122 2.36192322 0.00672913 C3.68317955 0.00684242 3.68317955 0.00684242 5.03112793 0.00695801 C5.98841293 0.01211929 6.94569794 0.01728058 7.93199158 0.02259827 C9.39480812 0.02472069 9.39480812 0.02472069 10.88717651 0.02688599 C14.01542675 0.03250319 17.14360656 0.04505859 20.27183533 0.05775452 C22.38706867 0.0627673 24.50230313 0.06733059 26.61753845 0.07142639 C31.81482829 0.0824782 37.01207678 0.09923305 42.20933533 0.12025452 C42.20933533 0.45025452 42.20933533 0.78025452 42.20933533 1.12025452 C40.32444397 1.1421283 40.32444397 1.1421283 38.401474 1.16444397 C33.74395641 1.22237056 29.08692517 1.29960362 24.42979431 1.38270569 C22.41327298 1.41598162 20.39665791 1.4440052 18.37998962 1.46669006 C15.48285433 1.50018708 12.58658015 1.55249996 9.68980408 1.60853577 C8.7865892 1.61492569 7.88337433 1.62131561 6.95278931 1.62789917 C6.11214432 1.64769333 5.27149933 1.66748749 4.40538025 1.68788147 C3.29618477 1.70453606 3.29618477 1.70453606 2.1645813 1.7215271 C-0.29771426 2.22365561 -1.11573758 3.30984641 -2.79066467 5.12025452 C-3.45066467 5.12025452 -4.11066467 5.12025452 -4.79066467 5.12025452 C-2.39081162 0.1605582 -2.39081162 0.1605582 0 0 Z " fill="#141A20" transform="translate(388.79066467285156,312.87974548339844)"/>
<path d="M0 0 C0.77943466 0.00222061 1.55886932 0.00444122 2.36192322 0.00672913 C3.68317955 0.00684242 3.68317955 0.00684242 5.03112793 0.00695801 C5.98841293 0.01211929 6.94569794 0.01728058 7.93199158 0.02259827 C9.39480812 0.02472069 9.39480812 0.02472069 10.88717651 0.02688599 C14.01542675 0.03250319 17.14360656 0.04505859 20.27183533 0.05775452 C22.38706867 0.0627673 24.50230313 0.06733059 26.61753845 0.07142639 C31.81482829 0.0824782 37.01207678 0.09923305 42.20933533 0.12025452 C42.20933533 0.45025452 42.20933533 0.78025452 42.20933533 1.12025452 C40.32444397 1.1421283 40.32444397 1.1421283 38.401474 1.16444397 C33.74395641 1.22237056 29.08692517 1.29960362 24.42979431 1.38270569 C22.41327298 1.41598162 20.39665791 1.4440052 18.37998962 1.46669006 C15.48285433 1.50018708 12.58658015 1.55249996 9.68980408 1.60853577 C8.7865892 1.61492569 7.88337433 1.62131561 6.95278931 1.62789917 C6.11214432 1.64769333 5.27149933 1.66748749 4.40538025 1.68788147 C3.29618477 1.70453606 3.29618477 1.70453606 2.1645813 1.7215271 C-0.29771426 2.22365561 -1.11573758 3.30984641 -2.79066467 5.12025452 C-3.45066467 5.12025452 -4.11066467 5.12025452 -4.79066467 5.12025452 C-2.39081162 0.1605582 -2.39081162 0.1605582 0 0 Z " fill="#141A20" transform="translate(325.79066467285156,312.87974548339844)"/>
<path d="M0 0 C0.66 0 1.32 0 2 0 C1.67 0.99 1.34 1.98 1 3 C0.34 3 -0.32 3 -1 3 C-1 17.52 -1 32.04 -1 47 C-1.33 47 -1.66 47 -2 47 C-2.0505963 40.62796407 -2.08568957 34.2559797 -2.10986328 27.88378906 C-2.11993789 25.71482406 -2.13359798 23.54587269 -2.15087891 21.37695312 C-2.17506323 18.26428874 -2.18646832 15.15180349 -2.1953125 12.0390625 C-2.20563507 11.065065 -2.21595764 10.0910675 -2.22659302 9.08755493 C-2.22674408 8.18677216 -2.22689514 7.28598938 -2.22705078 6.35791016 C-2.231492 5.56293121 -2.23593323 4.76795227 -2.24050903 3.94888306 C-2 2 -2 2 0 0 Z " fill="#313D4E" transform="translate(471,421)"/>
<path d="M0 0 C0.66 0 1.32 0 2 0 C1.67 0.99 1.34 1.98 1 3 C0.34 3 -0.32 3 -1 3 C-1 17.52 -1 32.04 -1 47 C-1.33 47 -1.66 47 -2 47 C-2.0505963 40.62796407 -2.08568957 34.2559797 -2.10986328 27.88378906 C-2.11993789 25.71482406 -2.13359798 23.54587269 -2.15087891 21.37695312 C-2.17506323 18.26428874 -2.18646832 15.15180349 -2.1953125 12.0390625 C-2.20563507 11.065065 -2.21595764 10.0910675 -2.22659302 9.08755493 C-2.22674408 8.18677216 -2.22689514 7.28598938 -2.22705078 6.35791016 C-2.231492 5.56293121 -2.23593323 4.76795227 -2.24050903 3.94888306 C-2 2 -2 2 0 0 Z " fill="#313D4E" transform="translate(471,358)"/>
<path d="M0 0 C0.66 0.33 1.32 0.66 2 1 C-4.6 7.6 -11.2 14.2 -18 21 C-18.66 20.67 -19.32 20.34 -20 20 C-17.98406752 17.78702148 -15.96250115 15.57965623 -13.9375 13.375 C-13.37611328 12.75753906 -12.81472656 12.14007813 -12.23632812 11.50390625 C-8.39290663 7.33104863 -4.3703098 3.61872786 0 0 Z " fill="#D9F5ED" transform="translate(217,106)"/>
<path d="M0 0 C1.00023193 0.00523682 2.00046387 0.01047363 3.03100586 0.01586914 C4.1105957 0.0190918 5.19018555 0.02231445 6.30249023 0.02563477 C8.00695312 0.03820312 8.00695312 0.03820312 9.74584961 0.05102539 C11.45611328 0.05779297 11.45611328 0.05779297 13.20092773 0.06469727 C16.02845312 0.07652792 18.85587601 0.09301129 21.68334961 0.11352539 C21.68334961 0.44352539 21.68334961 0.77352539 21.68334961 1.11352539 C21.03261475 1.12810791 20.38187988 1.14269043 19.71142578 1.15771484 C16.76396655 1.23217088 13.81764319 1.32883805 10.87084961 1.42602539 C9.84668945 1.44858398 8.8225293 1.47114258 7.76733398 1.49438477 C6.29296875 1.54755859 6.29296875 1.54755859 4.78881836 1.60180664 C3.88284912 1.62799072 2.97687988 1.6541748 2.04345703 1.68115234 C-0.72693642 2.18869003 -1.48729233 3.05707932 -3.31665039 5.11352539 C-3.97665039 5.11352539 -4.63665039 5.11352539 -5.31665039 5.11352539 C-2.91139801 0.14267047 -2.91139801 0.14267047 0 0 Z " fill="#192028" transform="translate(452.316650390625,312.886474609375)"/>
<path d="M0 0 C-1.39750048 3.15835107 -3.05198234 5.32272825 -5.5 7.75 C-6.41265625 8.67039062 -6.41265625 8.67039062 -7.34375 9.609375 C-9 11 -9 11 -11 11 C-9.60249952 7.84164893 -7.94801766 5.67727175 -5.5 3.25 C-4.8915625 2.63640625 -4.283125 2.0228125 -3.65625 1.390625 C-2 0 -2 0 0 0 Z " fill="#2A2A2A" transform="translate(126,289)"/>
<path d="M0 0 C0.33 0 0.66 0 1 0 C0.22095672 10.55808656 0.22095672 10.55808656 -2 15 C-2.66 15 -3.32 15 -4 15 C-3.34 11.37 -2.68 7.74 -2 4 C-1.34 4 -0.68 4 0 4 C0 2.68 0 1.36 0 0 Z " fill="#74A899" transform="translate(469,254)"/>
<path d="M0 0 C0.33 1.32 0.66 2.64 1 4 C-0.65 4 -2.3 4 -4 4 C-4 4.33 -4 4.66 -4 5 C-6.64 5 -9.28 5 -12 5 C-10.66666667 4.33333333 -9.33333333 3.66666667 -8 3 C-6.96875 2.46375 -5.9375 1.9275 -4.875 1.375 C-2 0 -2 0 0 0 Z " fill="#44BFA3" transform="translate(367,271)"/>
<path d="M0 0 C-1.5830577 4.2742558 -4.50568404 6.26531794 -8 9 C-8 6 -8 6 -6.7578125 4.39453125 C-5.94957031 3.61142578 -5.94957031 3.61142578 -5.125 2.8125 C-4.59132812 2.28269531 -4.05765625 1.75289063 -3.5078125 1.20703125 C-2 0 -2 0 0 0 Z " fill="#648CC4" transform="translate(135,301)"/>
<path d="M0 0 C-0.639375 0.185625 -1.27875 0.37125 -1.9375 0.5625 C-4.42126213 1.94246056 -4.42126213 1.94246056 -4.75 5.625 C-4.8325 6.73875 -4.915 7.8525 -5 9 C-6.85776765 5.86501708 -7.20140476 3.62528568 -7 0 C-3.86650268 -1.04449911 -3.01031744 -0.93423645 0 0 Z " fill="#B1EBDD" transform="translate(295,124)"/>
<path d="M0 0 C2.0625 0.4375 2.0625 0.4375 4 1 C3.34 1 2.68 1 2 1 C1.67 3.64 1.34 6.28 1 9 C-1.14809171 5.77786243 -1.29386153 4.72224599 -1 1 C-0.67 0.67 -0.34 0.34 0 0 Z " fill="#64D5B8" transform="translate(301,227)"/>
<path d="M0 0 C0.66 0 1.32 0 2 0 C1.67 1.32 1.34 2.64 1 4 C-1.31 4.66 -3.62 5.32 -6 6 C-4 4 -2 2 0 0 Z " fill="#4A4A4A" transform="translate(595,598)"/>
</svg>
