<?xml version="1.0" encoding="UTF-8"?>
<svg id="CashTokens" xmlns="http://www.w3.org/2000/svg" version="1.1" viewBox="0 0 360 360">
  <!-- Generator: Adobe Illustrator 29.1.0, SVG Export Plug-In . SVG Version: 2.1.0 Build 142)  -->
  <defs>
    <style>
      .st0 {
        fill: #fff;
      }

      .st1 {
        fill: #8dc351;
      }

      .st2 {
        fill: #d1ced9;
      }
    </style>
  </defs>
  <g>
    <circle id="purple" cx="179.9" cy="180" r="179.9"/>
    <g id="barcode">
      <path class="st2" d="M73.1,276.8l-19.7,17.9c1.9,2.1,3.9,4.2,5.9,6.2l18.9-18.9c-1.7-1.7-3.5-3.5-5.1-5.3h0Z"/>
      <path class="st2" d="M62.7,263.8c-1.1-1.6-2.2-3.3-3.4-4.9l-22.2,14.7c1.2,1.9,2.6,3.8,3.9,5.6l21.7-15.4Z"/>
      <path class="st2" d="M27.3,256.7l23.9-11.9c-1.8-3.6-3.5-7.2-4.9-10.9l-24.7,10c1.7,4.4,3.7,8.7,5.8,12.9h-.1Z"/>
      <path class="st2" d="M16.5,229.7l25.5-7.8c-.6-1.9-1.1-3.9-1.6-5.8l-25.8,6.7c.6,2.3,1.2,4.6,1.9,6.8Z"/>
      <path class="st2" d="M11.8,210l26.2-4.7c-.3-1.9-.6-3.9-.9-5.9l-26.4,3.7c.3,2.3.6,4.6,1,6.9h.1Z"/>
      <path class="st2" d="M10.1,197l26.5-2.6c-.4-3.9-.6-7.9-.7-11.8l-26.6.5c0,4.7.3,9.3.8,13.9Z"/>
      <path class="st2" d="M12.2,148.1l26.1,5c.4-1.9.8-4,1.2-5.9l-25.9-6c-.5,2.3-1,4.6-1.4,6.9Z"/>
      <path class="st2" d="M15.1,135.5l25.7,7c2-7.8,4.8-15.2,8.1-22.3l-24.3-11c-3.9,8.4-7,17.1-9.5,26.2h0Z"/>
      <path class="st2" d="M30.3,97.9l23.4,12.9c.9-1.7,1.9-3.5,3-5.2l-22.9-13.8c-1.2,2-2.3,4-3.5,6.1Z"/>
      <path class="st2" d="M46.2,74l20.8,16.5c1.2-1.5,2.6-3.2,3.9-4.7l-20.2-17.3c-1.5,1.8-3.1,3.6-4.5,5.5Z"/>
      <path class="st2" d="M78.3,77.8c2.9-2.8,5.7-5.5,8.8-8.1l-17.2-20.3c-3.6,3-7,6.1-10.3,9.4l18.8,18.9h0Z"/>
      <path class="st2" d="M105,56.9c1.7-1,3.5-2,5.2-3.1l-13-23.3c-2,1.1-4.1,2.3-6.1,3.6l13.9,22.7Z"/>
      <path class="st2" d="M121.4,48.4c3.7-1.6,7.3-3.1,11.2-4.4l-8.8-25.1c-4.5,1.5-8.9,3.3-13.2,5.2l10.7,24.4h0Z"/>
      <path class="st2" d="M137.3,42.3c5.6-1.7,11.4-3.2,17.3-4.2l-4.8-26.2c-6.9,1.2-13.7,2.9-20.3,4.9l7.9,25.5h-.1Z"/>
      <path class="st2" d="M170.8,36.2c1.9-.1,4-.2,6-.3l-.6-26.6c-2.3,0-4.7.2-7.1.3l1.6,26.5h.1Z"/>
      <path class="st2" d="M189.4,36.2c2,.1,4,.3,6,.5l2.9-26.5c-2.3-.2-4.7-.4-7-.6l-1.7,26.5h-.1Z"/>
      <path class="st2" d="M211.4,39.4c7.8,1.7,15.4,4.1,22.6,7l9.9-24.7c-8.6-3.5-17.4-6.2-26.6-8.3l-5.9,26h0Z"/>
      <path class="st2" d="M238.6,48.4c1.8.8,3.7,1.6,5.4,2.6l11.8-23.9c-2.1-1-4.2-2-6.4-3l-10.8,24.3Z"/>
      <path class="st2" d="M255,57c3.4,2,6.7,4.3,9.9,6.6l15.6-21.5c-3.8-2.8-7.7-5.4-11.6-7.9l-13.9,22.7h0Z"/>
      <path class="st2" d="M285.8,82.2l19.6-18.1c-1.5-1.7-3.2-3.4-4.8-5l-18.8,18.9c1.4,1.4,2.8,2.8,4.1,4.2h-.1Z"/>
      <path class="st2" d="M313.9,74.1l-20.9,16.5c1.2,1.5,2.4,3.2,3.7,4.8l21.5-15.7c-1.4-1.9-2.8-3.8-4.3-5.6Z"/>
      <path class="st2" d="M326.5,92.3l-22.9,13.7c1,1.7,2,3.5,3.1,5.3l23.4-12.8c-1.1-2.1-2.3-4.2-3.6-6.2Z"/>
      <path class="st2" d="M333,104.1l-23.9,11.8c1.7,3.6,3.4,7.1,4.9,10.9l24.7-9.9c-1.7-4.4-3.7-8.6-5.7-12.8h0Z"/>
      <path class="st2" d="M343,128.9l-25.4,8c.6,1.8,1.1,3.8,1.6,5.7l25.7-6.9c-.6-2.2-1.2-4.5-1.9-6.7h0Z"/>
      <path class="st2" d="M350.7,184.3v-4.3c0-3.3-.1-6.5-.3-9.8l-26.6,1.4c.2,2.8.2,5.5.2,8.3v3.7l26.6.6h.1Z"/>
      <path class="st2" d="M348.1,210.4l-26.2-4.8c-.4,2-.8,4-1.2,5.9l26,5.6c.5-2.2,1-4.5,1.4-6.8h0Z"/>
      <path class="st2" d="M345.2,223.4l-25.7-6.8c-.5,1.9-1,3.9-1.6,5.7l25.5,7.8c.7-2.2,1.3-4.5,1.9-6.7h-.1Z"/>
      <path class="st2" d="M335.5,250.6l-24.3-11c-.8,1.8-1.7,3.7-2.7,5.4l23.8,12c1-2.1,2.1-4.3,3.1-6.4h.1Z"/>
      <path class="st2" d="M329.7,262.4l-23.3-13c-3.9,6.9-8.3,13.6-13.2,19.8l21,16.4c5.7-7.3,10.9-15.1,15.4-23.3h0Z"/>
      <path class="st2" d="M286.5,277.2c-1.5,1.6-3.1,3.3-4.7,4.9l18.9,18.9c1.8-1.8,3.7-3.8,5.5-5.7l-19.7-18h0Z"/>
    </g>
    <g id="text">
      <path id="s" class="st0" d="M269.6,320.9c.8-.5,1.3-1,1.6-1.3s.2-.8,0-1.2c-.2-.4-.6-.5-1.2-.5s-1.5.1-2.6.4c-.9.2-1.6.3-2.4.4h-2.1c-.7,0-1.2-.4-1.8-.8-.6-.4-1.1-1-1.6-1.7-.9-1.5-1.1-3-.6-4.6.5-1.5,1.7-3,3.7-4.2.9-.6,1.9-1.1,3-1.5s1.8-.6,2.4-.8l1.4,4c-.6.2-1.3.4-2,.6s-1.4.6-2.1,1.1c-1.4.9-1.8,1.7-1.3,2.6.1.2.2.3.4.4.1,0,.4.2.6.2h1c.4,0,.9-.1,1.5-.3,1.2-.3,2.2-.4,3.2-.5.9,0,1.6,0,2.2.2s1.2.4,1.6.8c.5.4.9.9,1.3,1.6,1,1.5,1.2,3.2.5,4.7-.6,1.5-2,3.1-4.2,4.4-1.4.9-2.7,1.5-3.8,1.9s-1.8.6-2.3.6l-1.6-4.1c.9-.2,1.8-.4,2.8-.8.9-.3,1.7-.8,2.6-1.2v-.3Z"/>
      <path id="n" class="st0" d="M239.5,320.9c.7-.6,1.6-1.3,2.9-2.1,1.2-.8,2.4-1.6,3.9-2.2,1.4-.7,2.8-1.1,3.9-1.2,1.1,0,2.1,0,3.1.5.9.4,1.6,1,2.3,1.8s1.3,1.8,1.8,3l4.7,9.5-4.8,2.3-4.4-9c-.7-1.5-1.5-2.6-2.2-3s-1.6-.4-2.8.1c-.3.2-.7.4-1,.6s-.7.4-1,.6l6.3,13.1-4.8,2.3-8-16.3h.1Z"/>
      <path id="e" class="st0" d="M222.8,336.1c-.5-1.5-.7-3.1-.6-4.4,0-1.3.4-2.6.9-3.6s1.2-1.9,2.1-2.8c.9-.7,1.8-1.3,3-1.6,2.6-.8,4.8-.7,6.7.3,1.9,1,3.5,3.1,4.5,6.1,0,.3.2.6.3,1,0,.4.2.7.2.9l-11.4,3.8c.4,1,1.2,1.6,2.2,1.9s2.3.2,3.8-.2c.9-.3,1.8-.7,2.7-1.1.8-.5,1.5-.9,1.9-1.3l2,3.9c-.2.2-.5.5-.9.8s-.9.6-1.4.8c-.5.3-1.1.6-1.7.8-.6.3-1.2.5-1.8.7-1.6.5-3.1.7-4.4.7s-2.6-.4-3.6-.9c-1-.6-1.9-1.3-2.8-2.3s-1.3-2.1-1.7-3.5h0ZM234,330.2l-.6-1.2c-.3-.4-.6-.6-.9-.9-.4-.2-.8-.4-1.2-.4s-1,0-1.5.2c-.6.2-1,.4-1.3.8-.3.3-.6.7-.7,1.1s-.2.8-.3,1.3,0,.9.1,1.4l6.6-2.2h-.1Z"/>
      <path id="k" class="st0" d="M209.2,336.1c.4-.6.8-1.3,1.2-2s.8-1.4,1.2-2.1.7-1.3,1.1-1.9c.3-.6.6-1.1.9-1.6l6.2-1.2c-.9,1.6-1.8,3.3-2.8,4.8s-1.9,3.2-3.1,4.8c.8.5,1.7,1.1,2.7,1.8.9.7,1.8,1.5,2.8,2.2.9.8,1.7,1.6,2.4,2.4.8.8,1.4,1.5,1.9,2.2l-6,1.2c-.5-.5-1-1.1-1.6-1.7s-1.3-1.2-1.9-1.9-1.4-1.2-2.1-1.7c-.7-.5-1.4-1-2.1-1.3l1.6,8.1-5.2,1-5.3-26.3,5-1.9,3.2,15.4h-.1Z"/>
      <path id="o" class="st0" d="M200.4,340.4c0,1.4,0,2.9-.4,4.1-.3,1.2-.9,2.3-1.6,3.3-.7.9-1.6,1.6-2.8,2.2s-2.3.9-3.8,1c-1.4,0-2.7,0-3.8-.4-1.1-.4-2.1-1-3.1-1.8s-1.5-1.8-2.1-3c-.5-1.2-.8-2.6-.9-4,0-1.4,0-2.9.4-4.1s.9-2.3,1.7-3.3c.7-.9,1.7-1.6,2.8-2.1,1.1-.5,2.3-.9,3.7-.9s2.7,0,3.8.4c1.1.4,2.1,1,3.1,1.8.8.8,1.5,1.8,2.1,3s.8,2.6.9,4v-.2ZM194.9,340.7c-.1-1.6-.5-2.9-1.2-3.8s-1.6-1.3-2.9-1.2c-1.2,0-2.1.6-2.8,1.6-.6,1-.8,2.2-.7,4s.5,3,1.2,3.9,1.7,1.3,3,1.2,2.1-.6,2.7-1.6c.6-1,.8-2.3.7-4h0Z"/>
      <path id="T" class="st0" d="M183,326.4l-.2,4.7-7.4-.4-.9,20-5.6-.3.9-20-7.4-.4.2-4.7,20.5,1h0Z"/>
      <path id="h" class="st0" d="M141.1,346.5l4.9-26.4h5.4c0,.1-1.6,9-1.6,9h1.4c.6,0,1.1,0,1.6.1,1.5.3,2.8.7,3.7,1.3.9.6,1.6,1.3,2,2.1s.7,1.8.8,2.9c0,1.1,0,2.2-.3,3.5l-1.9,10.4-5.2-.9,1.8-9.8c.3-1.7.3-3,0-3.7-.3-.8-1-1.3-2.2-1.5-.5,0-.9-.1-1.3-.1h-1.1l-2.6,14.1-5.2-.9h-.2Z"/>
      <path id="s1" class="st0" d="M129.7,339.3c.9.3,1.6.4,2,.3.4,0,.7-.3.9-.9.1-.4,0-.8-.4-1.3s-1-1-1.9-1.7c-.7-.5-1.3-1.1-1.8-1.6s-1-1.1-1.3-1.6-.5-1.2-.6-1.9,0-1.4.3-2.3c.5-1.6,1.5-2.9,3.2-3.4,1.5-.6,3.5-.5,5.6.1,1.1.3,2.1.7,3.1,1.2s1.6.9,2.1,1.3l-2.1,3.7c-.5-.4-1.1-.8-1.7-1.1s-1.4-.7-2.2-.9c-1.6-.5-2.6-.3-2.8.6v.6c0,.2.1.4.3.6s.4.4.7.7.7.6,1.1,1c1,.7,1.7,1.4,2.3,2s1,1.2,1.3,1.8c.3.6.4,1.2.4,1.8s-.1,1.3-.4,2c-.5,1.7-1.6,2.9-3.3,3.4-1.6.5-3.7.4-6-.4-1.6-.5-2.9-1-3.9-1.6s-1.6-1-1.9-1.3l2.1-3.9c.7.6,1.5,1.1,2.4,1.6.8.5,1.7.8,2.7,1.1h-.2Z"/>
      <path id="a" class="st0" d="M118.1,318.4c1.4.6,2.6,1.3,3.4,2s1.3,1.5,1.6,2.4c.3.8.4,1.8.2,2.8-.1,1-.4,2-.9,3.1l-4.5,10.1c-.8-.2-1.8-.4-3.2-.7-1.3-.3-2.9-.9-4.7-1.7-1.1-.5-2-1-2.9-1.6s-1.4-1.2-1.9-2c-.4-.7-.7-1.5-.7-2.4s.2-1.8.6-2.9,1-1.7,1.7-2.2,1.5-.8,2.3-.9,1.7,0,2.8.1c.9.2,1.9.5,2.9.9.6.3,1.2.5,1.6.8.5.3.8.5,1.1.7l.2-.4c.4-.8.4-1.6.1-2.3s-1-1.3-2.2-1.9c-.8-.4-1.6-.7-2.6-.9-.8-.2-1.6-.4-2.3-.4l1.1-4.2c.3,0,.7.1,1.2.2.5,0,.9.2,1.5.3.5.1,1.1.3,1.6.5.6.2,1.1.4,1.7.6v.2ZM112.2,332.8c.5.2.9.4,1.4.6.4.2.8.3,1.1.4l1.6-3.7c-.2-.1-.4-.3-.8-.5s-.7-.4-1-.5c-.4-.2-.9-.4-1.3-.5s-.8-.2-1.2-.2-.7.1-1,.3c-.3.2-.5.5-.7.8-.3.7-.3,1.4,0,1.9.4.5,1,1,1.9,1.3h0Z"/>
      <path id="C" class="st0" d="M92.3,327.2c-3.5-2.1-5.4-4.7-6-7.7-.6-3.1.2-6.2,2.3-9.8,1.1-1.7,2.3-3.2,3.7-4.2s2.9-1.7,4.4-2,3.1-.4,4.7,0c1.6.3,3.2.9,4.7,1.9.9.5,1.6,1.1,2.3,1.7.6.6,1.2,1.1,1.6,1.6s.8,1,1,1.3c.2.4.4.7.5.9l-3.8,3c-.4-.7-1-1.5-1.7-2.2-.7-.8-1.6-1.5-2.8-2.1-.7-.4-1.5-.8-2.3-.9s-1.7-.2-2.6,0-1.7.6-2.6,1.3c-.8.6-1.6,1.6-2.4,2.8-.6,1-1,1.9-1.3,3s-.4,1.9-.3,2.9c0,.9.4,1.7,1,2.6.5.8,1.3,1.6,2.4,2.2.7.4,1.3.8,1.9,1s1.1.5,1.6.6.9.3,1.3.3.8.1,1.1.1l-1,4.6c-.9,0-2-.2-3.5-.6s-3-1.1-4.5-2.1h0Z"/>
    </g>
  </g>
  <g>
    <path d="M179.9,59.1c-66.8,0-121,54.1-121,121s54.1,121,121,121h0c66.8,0,121-54.1,121-121h0c0-66.8-54.1-121-121-121h0ZM177.2,82.6c-36.3,8.4-62.1,40.6-62.1,77.8s35.8,79.9,79.9,79.9,79.9-35.8,79.9-79.9v-2.3c1.6,7.2,2.5,14.5,2.5,21.8,0,53.8-43.6,97.5-97.5,97.5s-97.5-43.6-97.5-97.5h0c0-52.8,42-96,94.8-97.5h0Z"/>
    <path class="st0" d="M177.2,82.6c-52.8,1.5-94.8,44.7-94.8,97.5s43.6,97.5,97.5,97.5h0c53.8,0,97.5-43.6,97.5-97.5h0c0-7.3-.9-14.7-2.5-21.8v2.3c0,44.2-35.8,79.9-79.9,79.9s-79.9-35.8-79.9-79.9,25.7-69.6,62.1-77.8h0Z"/>
    <g>
      <path class="st1" d="M191.5,229.3c-3-.2-6.4-.6-9.3-1.2-12.2-2.5-23.8-8.3-33-16.5-.9-.9-4.2-4.1-5-4.9-2.1-2.4-4.7-5.7-6.5-8.5-.8-1.1-1.9-2.9-1.9-3s-.1-.3-.3-.5c-.4-.6-1.2-2-1.9-3.6-4.2-8.4-6.6-17.5-7.2-27.2-.1-1.8-.1-6,0-7.8.9-13.9,5.6-26.8,13.9-37.9,2-2.8,3.8-4.6,6.4-7.4,2.5-2.5,3.8-3.6,6.1-5.5,13.9-10.9,32-16.2,49.5-14.5,15.1,1.5,29.2,7.7,40.3,18,5.5,5,10.1,10.8,13.8,17.5.5,1,2,3.9,2.6,5.3,3,6.6,5,14.2,5.7,21.4.3,2.7.3,4.3.3,7.1,0,7-1.1,13.8-3.1,20.5-4.6,14.8-14,27.7-26.6,36.5-10.6,7.4-22.7,11.6-35.9,12.4h-8,.2Z"/>
      <path class="st0" d="M195.4,199.5c0-.1-.5-1.8-1.1-3.6-1.6-5.8-2.1-7.6-2.1-7.7,0,0-3.2.9-7.1,1.9-3.9,1.1-7.1,1.9-7.1,1.9,0,0-.9-8.4-.9-8.6s0-.2.2-.2c.6-.1,4.5-1.2,5-1.4.9-.3,1.5-.9,1.6-1.6.2-.8.2-1.3-.3-3.1-.2-1-1.1-4.1-1.9-6.9-.8-2.8-1.9-7-2.6-9.2s-1.6-5.7-2.1-7.6-1.2-4.2-1.3-4.8c-.2-.8-.4-1.5-.5-1.7-.3-.6-.9-1.1-1.5-1.4-.5-.3-.6-.3-1.4-.3-1.1,0-1.9.1-5.9,1.3-.6.2-1,.2-1,.2,0-.2-2-7.3-2-7.3,0,0,.8-.2,1.6-.5.9-.2,4-1.1,7-1.9s5.5-1.5,5.5-1.5c0,0-.6-2.6-1.5-5.7-.9-3.1-1.5-5.7-1.5-5.8,0,0,.2-.1.4-.2.2,0,1.8-.5,3.4-1s3-.9,3-.9c0,0,.8,2.6,1.6,5.6.9,3.1,1.6,5.6,1.6,5.6,0,0,1.1-.3,2.5-.6,1.3-.4,2.6-.8,2.8-.9.3,0,.3-.1.3-.2,0,0-.8-2.6-1.5-5.6-.9-3-1.5-5.5-1.5-5.5,0,0,6.9-2,7-1.9,0,0,.8,2.6,1.6,5.7s1.6,5.7,1.6,5.7h.8c3.3-.6,7.3-.8,9.5-.4,5.4.9,8.7,3.5,10.3,8.6,1.6,4.7.8,8.8-2.5,12.1l-.5.6h1c6.6,0,10.8,3.2,12.7,9.5,1.1,3.8,1.1,7.3.1,10.3-.3,1-1.1,2.6-1.7,3.4-1.2,1.6-3.3,3.5-5.7,4.9-2.3,1.3-6.1,3-8.7,3.9-.2,0-.4.2-.5.2,0,0,.5,2.4,1.3,5.1.8,2.8,1.5,5.4,1.6,5.8l.2.8-3.4,1c-1.9.5-3.4,1-3.5,1s-.8-2.6-1.6-5.7c-.9-3.1-1.6-5.7-1.6-5.7,0,0-1.2.3-2.6.6-1.4.3-2.7.8-2.8.8s-.2,0-.2.1c0,0,.1.5,2,7.7.5,2,1.1,3.8,1,3.9s-1.6.4-3.5,1l-3.4,1v-.6ZM198.9,177.2c7.5-1.9,11.5-3.8,13.9-6.3.8-.8,1.1-1.2,1.4-2,.4-.9.5-1.5.5-2.6,0-1.7-.6-3.3-1.7-4.5-2.6-2.7-7.1-3.1-14.7-1.2-1.8.4-5.6,1.6-5.6,1.7s1,3.5,2.1,7.7,2.1,7.6,2.1,7.6c0,0,.2,0,1.9-.4h-.1ZM192.5,154.7c5.3-1.4,8.1-2.6,10.4-4.4.8-.6,1.3-1.2,1.8-1.9s.8-1.3.9-2.3c.1-.9,0-1.9-.3-3-.9-2.5-2.5-3.9-5.4-4.3-.6,0-1.2-.1-2.4,0-1.8,0-3.2.2-5.5.9-1.4.3-4.9,1.4-4.9,1.4,0,0,1,3.9,3.4,12.8.2.8.3,1.2.4,1.2s.8-.2,1.5-.3h0Z"/>
    </g>
    <path class="st0" d="M179.9,49.4c-72.2,0-130.6,58.4-130.6,130.6h0c0,72.2,58.4,130.6,130.6,130.6h0c72.2,0,130.6-58.4,130.6-130.6h0c0-72.2-58.4-130.6-130.6-130.6h0ZM179.9,59.1c66.8,0,121,54.1,121,121s-54.1,121-121,121h0c-66.8,0-121-54.1-121-121h0c0-66.8,54.1-121,121-121h0Z"/>
  </g>
</svg>